<svg viewBox="0 0 1000 1000" xmlns="http://www.w3.org/2000/svg" fill-rule="evenodd" clip-rule="evenodd" stroke-linejoin="round" stroke-miterlimit="2"><path d="M1000 200C1000 89.617 910.383 0 800 0H200C89.617 0 0 89.617 0 200v600c0 110.383 89.617 200 200 200h600c110.383 0 200-89.617 200-200V200z" fill="#fff"/><path d="M212.913 515.209c16.219.024 26.715-58.69 55.731-122.436 70.653-137.993 134.674-222.924 187.314-216.809-6.27 103.73-76.229 260.003-99.462 339.245L239.628 848.501s4.33 23.382 32.351 30.297c0 0 191.905-414.622 325.963-620.21 0 0-184.744 334.557-74.742 404.562 0 0 112.53-189.731 227.165-320.941 0 0-210.9 518.22-50.133 543.505 32.39 5.095 102.758-111.139 102.758-143.927 0-32.787-18.397-30.686-35.511-6.591-17.114 24.096-77.408 101.193-77.408 101.193s-27.295 0 90.715-368.872c30.546-95.48 39.769-148.484 4.674-178.707-21.358-18.392-29.18-14.957-50.212 0-18.489 13.15-92.494 106.789-141.037 192.663-6.581-8.462 123.044-290.843 100.288-322.524 0 0-34.312-55.294-56.012-29.225-21.701 26.069-105.593 142.574-168.04 270.925 0 0 88.899-274.011-51.285-274.011-140.183 0-228.176 274.011-228.176 340.879 0 41.692 12.84 47.692 21.927 47.692z" fill="#231300"/></svg>