<svg width="247" height="82" viewBox="0 0 247 82" fill="none" xmlns="http://www.w3.org/2000/svg"><g clip-path="url(#clip0_26_133)" fill="#231300"><path d="M246.949 46.03c-.273-.279-.548-.699-1.026-.768a44.401 44.401 0 01-1.505 3.633l-1.026 2.236c-.48 1.12-.957 2.166-1.574 3.213-.548 1.047-1.232 2.097-2.053 3.213-.548.769-1.094 1.398-1.847 2.027-.753.56-1.574.978-2.463 1.047-1.096.14-1.985-.139-2.67-.838-.48-.49-.684-.977-.957-1.537-.548-1.397-.616-2.795-.685-4.262-.068-1.328.137-2.657.137-4.052l.136-.209c.205-.07.273.14.48.21.616.49 1.233.907 1.986 1.258.616.348 1.3.49 2.053.49.341 0 .685-.07.958-.21.616-.278 1.025-.768 1.505-1.258.341-.35.548-.838.685-1.398.341-.907.548-1.745.548-2.653-.068-.49-.137-.769-.137-1.12 0-.768-.204-1.327-.411-2.096a4.25 4.25 0 00-1.097-1.885l-.411-.49c-.205-.209-.273-.42-.48-.63-.341-.278-.685-.559-1.026-.768-.889-.629-1.778-.699-2.806-.278a5.47 5.47 0 00-1.506.977c-.48.35-.684.769-1.025 1.259-.48.629-.958 1.397-1.301 2.166-.146.398-.677 1.295-1.043 1.98-.017-.008-.034-.018-.051-.025-.616 1.397-1.847 3.282-2.395 4.402-.48.838-.684 1.745-1.164 2.584-1.094 2.236-2.19 4.471-3.491 6.498-.48.63-.821 1.259-1.301 1.816l-1.233 1.328c-.48.42-1.025.63-1.505.63-.068-.35-.205-.56-.205-.77 0-.907-.068-1.745 0-2.583.205-.839.068-1.746.273-2.584v-.351c-.068-.209 0-.42 0-.63 0-.559.136-1.046.205-1.606.068-.768.272-1.607.204-2.375 0-.209.069-.14.069-.348.204-.63.341-1.259.411-1.885.205-1.047.205-1.888.412-2.796.205-.768.273-1.467.48-2.236l.136-1.119.273-1.047c.205-1.047.273-1.957.616-2.865.205-.63.273-1.258.48-2.027.205-.768.273-1.467.48-2.236.068-.49.273-.977.341-1.467.069-.49.273-.977.273-1.467.068-.49.205-.839.273-1.12.205-.278.205-.629.273-.907 0-.07.068-.279.136-.56.068-.279.068-.63.273-.977l.137-.908c.341-1.12.684-2.236.957-3.425.068-.49.136-.768.341-1.258l.136-.49.205-.908c.068-.49.136-.768.341-1.12.068-.559.205-1.046.273-1.397.205-.56.205-1.189.412-1.746.068-.278 0-.49 0-.768l-.821-.838c-.069-.21-.205-.279-.341-.21-.341.21-.341.56-.549.839l-.82 1.815-.685 1.886c-.48 1.047-.753 2.026-1.233 3.074-.341 1.119-.684 2.235-1.164 3.282 0 .07-.068.14-.137.349l-.548 2.096-.411 1.047c-.205.769-.48 1.537-.685 2.375-.205.63-.341 1.259-.548 1.816l-.685 2.584c-.068.49-.204.838-.272 1.189a5.71 5.71 0 00-.412 1.537l-.548 2.375c-.069.63-.273 1.189-.341 1.815-.069.838-.273 1.607-.48 2.375v.015c-.273.543-.536.978-.753 1.592-.48 1.12-.753 2.306-1.233 3.353-.48 1.328-.889 2.656-1.437 3.981-.548 1.117-.957 2.306-1.71 3.353-.341.49-.753.977-1.094 1.328-.273.278-.616.42-.957.49a.528.528 0 01-.137-.279 4.33 4.33 0 01-.273-1.537c0-1.328-.136-2.656.069-3.981l.204-3.005c.205-1.047.137-1.885.341-2.934l.137-.7c0-.559.068-1.188.136-1.745.068-.49.137-.769.137-1.259 0-.768.068-1.397.272-1.957a4.61 4.61 0 00.412-1.258c.068-.49.341-.769.136-1.259l-.479-.629c-.341-.56-.753-.768-1.233-1.258-.205-.07-.341-.14-.48-.14l-.48.769c-.205.768-.48 1.328-.684 2.096l-1.642 4.402-.549 1.259-1.573 4.051c-.753 1.885-1.369 3.773-2.395 5.519-.548 1.047-1.164 2.096-1.778 3.144-.069.209-.205.278-.341.209 0-.21-.069-.49-.069-.7 0-.49 0-1.046.069-1.536 0-.63.068-1.19.068-1.746 0-.557.204-1.117.273-1.677l.548-2.514.548-2.305c.205-.63.205-1.328.412-1.886.204-.768.272-1.328.48-1.957.272-1.119.616-2.236.82-3.283.205-.768.412-1.397.205-2.166-.48-.63-.616-1.328-1.369-1.816l-.957.21-.412.559-.821 1.816c-.621 1.556-1.101 3.113-1.52 4.707l-.807 1.58-2.601 4.68c-.753 1.12-1.233 2.236-1.986 3.283-.752.908-1.301 1.816-2.053 2.654-.341.49-.685.838-1.165 1.328-.48.56-1.096 1.047-1.849 1.467-.48.279-.957.279-1.437.279a1.796 1.796 0 01-.685-.42 4.712 4.712 0 01-.616-1.468c-.068-.629-.205-1.328-.205-1.957v-.56c-.068-.49-.136-.838-.068-1.047 0-.35.068-.698 0-1.047 0-.49.068-.699.137-1.189v-.838c.341-1.676.752-3.352 1.369-4.961.341-.838.684-1.677 1.164-2.515 0-.07.068-.139.137-.348.272-.35.548-.699.752-1.047a9.612 9.612 0 011.918-2.166c.204-.14.411-.209.479-.14.48.63.273 1.26.273 2.028.205.278.412.42.685.42.753-.49.957-1.12.753-2.027a1.609 1.609 0 00-.685-.838c-.136-.07-.341-.279-.616-.56-.205-.209-.341-.348-.48-.42l-1.096-.699c-1.026-.07-1.847.209-2.532.838-.821.838-1.573 1.607-2.053 2.656-.068.21-.205.349-.273.42-.341.49-.616.978-.821 1.607-.341.838-.685 1.677-.957 2.515-.022.072-.042.144-.064.214a54.651 54.651 0 01-.826 1.88l-1.025 2.236c-.48 1.119-.958 2.166-1.574 3.213-.548 1.047-1.233 2.096-2.054 3.213-.548.769-1.093 1.398-1.846 2.027-.753.56-1.574.977-2.463 1.047-1.096.14-1.986-.14-2.67-.838-.48-.49-.685-.978-.957-1.537-.549-1.398-.617-2.795-.685-4.263-.068-1.328.136-2.656.136-4.051l.137-.21c.204-.069.273.14.48.21.616.49 1.232.908 1.985 1.258.617.348 1.301.49 2.054.49.341 0 .684-.07.957-.209.617-.278 1.026-.768 1.506-1.258.341-.35.548-.838.684-1.398.341-.908.548-1.746.548-2.654-.068-.49-.136-.768-.136-1.119 0-.768-.205-1.328-.412-2.096a4.239 4.239 0 00-1.096-1.886l-.412-.49c-.204-.208-.273-.42-.48-.629-.341-.278-.684-.56-1.025-.768-.889-.63-1.779-.699-2.807-.279-.48.21-.957.49-1.505.978-.48.35-.685.768-1.026 1.258-.48.63-.957 1.398-1.301 2.166-.146.398-.677 1.296-1.042 1.98-.017-.007-.034-.017-.054-.025-.616 1.398-1.846 3.283-2.395 4.402-.479.838-.684 1.746-1.164 2.584-1.094 2.236-2.19 4.472-3.491 6.499-.48.63-.821 1.258-1.301 1.815l-1.233 1.329c-.479.42-1.025.629-1.505.629-.068-.349-.205-.56-.205-.769 0-.907-.068-1.746 0-2.584.205-.838.069-1.746.273-2.584v-.35c-.068-.21 0-.42 0-.63 0-.56.137-1.047.205-1.606.068-.769.273-1.607.204-2.376 0-.208.069-.139.069-.348a9.54 9.54 0 00.411-1.885c.205-1.047.205-1.887.412-2.795.205-.769.273-1.468.48-2.236l.136-1.12.273-1.046c.205-1.047.273-1.958.617-2.865.204-.63.272-1.259.479-2.027.205-.769.273-1.468.48-2.236.069-.49.273-.978.341-1.468.069-.49.273-.977.273-1.467.069-.49.205-.838.273-1.119.205-.279.205-.63.273-.908 0-.07.068-.278.136-.56.069-.278.069-.629.273-.977l.137-.907c.341-1.12.684-2.236.957-3.425.068-.49.136-.769.341-1.259l.137-.49.204-.907c.068-.49.137-.769.341-1.12.068-.56.205-1.046.273-1.397.205-.56.205-1.189.412-1.746.068-.279 0-.49 0-.769l-.821-.838c-.068-.209-.205-.278-.341-.209-.341.21-.341.56-.548.838l-.821 1.816-.685 1.885c-.48 1.047-.753 2.027-1.233 3.074-.341 1.12-.684 2.236-1.164 3.283 0 .07-.068.14-.136.348l-.549 2.097-.411 1.047c-.205.768-.48 1.537-.685 2.375-.204.63-.341 1.258-.548 1.816l-.684 2.584c-.069.49-.205.838-.273 1.188a5.75 5.75 0 00-.412 1.537l-.548 2.375c-.068.63-.273 1.19-.341 1.816-.064.771-.241 1.482-.431 2.189-.161.497-.339.798-.597 1.372-.48 1.398-1.165 2.236-1.779 3.564-1.096 3.074-4.243 1.886-4.243-1.328v-.838c.204-.768.341-1.746.411-2.654.205-1.047 0-1.745-.204-2.795-.205-.49-.412-.908-.48-1.398-.205-.49-.273-.838-.48-1.189-.205-.49-.616-.907-1.233-1.258 0-.14-.136-.209-.48-.209-.068-.07-.273 0-.341-.209-.204-.278-.548-.49-.957-.629-.548-.49-1.233-.42-1.986-.209-.068.07-.204.14-.411.14-.341.278-.548.42-1.026.907l-.412.348c-.068.351-.411.7-.752.978 0 .348-.069.56-.205.699a5.368 5.368 0 00-1.026 1.815l-.616 1.468c-.273.39-.416.693-.599 1.188-.103.087-.188.174-.222.279-.753 1.189-2.122 3.703-2.874 4.892-.617 1.047-1.097 2.096-1.711 3.143-.548.839-.889 1.677-1.437 2.515a73.318 73.318 0 01-3.627 5.38c-.753 1.118-1.574 2.166-2.327 3.212a5.42 5.42 0 01-.889.908l-.205-.278c.069-.348.137-.7.137-.908 0-.908.204-1.746.273-2.656l.204-.699c0-.49 0-.769.205-1.117.068-.07.068-.139.068-.35l.205-.769c.204-.56.273-1.119.48-1.676.204-.49.204-1.047.411-1.607a5.75 5.75 0 00.412-1.537c.068-.35.205-.699.273-.907 0-.21 0-.351-.068-.42.204-.352.411-.7.48-1.12 0-.07 0-.14.068-.209.273-.49.273-1.047.48-1.606.204-.56.411-1.047.411-1.677 0-.07.069-.139.069-.209.341-.768.48-1.467.752-2.236.341-.768.412-1.676.753-2.514.205-.49.273-.977.48-1.467v-.42c.48-1.468.889-2.866 1.096-4.472.069-.279.137-.49.137-.838.068-.351.068-.769.068-1.12.068-.768 0-1.397-.48-1.957-.273-.209-.548-.56-.753-1.047-.068-.278-.204-.42-.411-.49-.341-.209-.549-.49-.753-.838h-.068c-.069 0-.069-.07-.137-.07h-.548c-.616.351-1.026.908-1.505 1.398-.821.838-1.574 1.607-2.327 2.654 0 .07-.068.139-.205.278-.341.49-.616.908-1.096 1.398l-1.369 1.885c-.341.63-.753 1.189-1.094 1.746-.548.838-1.025 1.676-1.505 2.514-.273.49-.48.769-.821 1.259 0-.209-.068-.209-.068-.279.479-.629.548-1.328.752-2.096.069-.49.205-.908.548-1.189 0-.35 0-.56.069-.63.273-.49.411-1.116.616-1.606l.616-1.676c.069-.49.48-.908.412-1.467 0-.07.068-.14.068-.21a.639.639 0 00.205-.49c0-.21.068-.278.068-.347.341-.769.685-1.329.753-2.167.068-.209.068-.278.273-.49a.915.915 0 00.273-.698c0-.21.136-.14.136-.349.205-.348.205-.56.412-.838.273-1.047.684-1.885.889-2.934.204-.63.204-1.259.273-1.886 0-.49-.137-.768-.341-1.047-.341-.49-.617-.768-.89-1.258-.068-.14-.204-.279-.411-.49l-.412-.49c-.136-.14-.273-.209-.412-.209-.204.07-.48.209-.684.42l-1.438 1.816c-.752.768-1.232 1.537-1.778 2.305-.341.49-.616.769-.889 1.259l-.821 1.328c-.068.209-.273.348-.341.56-.205.768-.753 1.119-1.026 1.885-.204.49-.48.977-.821 1.467l-.548 1.12c-.48.628-.684 1.188-.957 1.815l-1.369 2.444-.685 1.398h-.068v-.63c.341-.698.48-1.258.548-1.745.205-.63.205-1.258.412-1.746.273-1.047.412-2.027.616-3.074.205-.768.068-1.467.273-2.236v-.56c-.068-.278-.205-.42 0-.698v-.279c-.205-.56-.136-1.119-.48-1.676l-.273-.699c-.273-.49-.684-.768-.889-1.258-.205-.49-.48-.838-.957-1.12-.205-.208-.341-.348-.48-.42-.48-.629-1.097-.977-1.917-.907-.205.07-.273 0-.48 0-.273.07-.412.139-.48.139-.821.209-1.506.348-2.259.838-.204.209-.48.348-.684.42-.48.279-.89.56-1.233.838-.273.49-.684.7-.957 1.047l-.137.14c-.272.49-.616.768-.957 1.258-.616.769-1.094 1.468-1.437 2.166 0 .14 0 .21-.069.279-.616.56-.889 1.328-1.369 2.096-.48.63-.752 1.329-1.096 1.958l-.957 2.236c-.205.278-.273.49-.273.629-.068.278-.205.42-.273.699-.205.209-.205.49-.273.698l-.204.7c-.205.49-.205.698-.273.977 0 .209-.069.278-.069.49 0 .49-.204.699-.272 1.189 0 .208-.069.42-.137.698-.204.769-.068 1.398-.136 2.167-.068.56.136 1.119.34 1.606.206.56.549.838 1.026.908.342-.07.617-.279.89-.63.068-.278.068-.559.273-.768.204-.35.272-.629.34-1.119.205-.35.137-.699.342-1.047.204-.49.34-.768.411-1.258.205-.279.412-.56.412-.908.068-.49.412-.769.412-1.259.068-.209.273-.42.34-.629l.549-1.119.548-1.12.412-.768 1.642-2.795c.204-.209.136-.348.34-.56.342-.629.617-1.119 1.097-1.676.48-.908 1.026-1.607 1.642-2.375.068-.14.136-.279.341-.49.48-.279.616-.699 1.094-.977l.548-.49c.821-.49 1.71-.838 2.531-1.12h.753c0 .349 0 .63-.068.839-.069.209-.069.42-.069.768 0 .56-.068 1.047-.204 1.537-.205 1.047-.273 1.957-.617 2.865v.21c0 .347-.068.628-.272.977-.069.278 0 .629-.205.907-.205.63-.412 1.259-.412 1.746-.204.348-.204.56-.411.838-.342 1.047-.685 2.236-1.165 3.283-.341.838-.684 1.746-.889 2.796l-.068.07-.685 1.536c-.204.279-.136.56-.34.908-.206.49-.274.908-.55 1.398l-.684 1.957c-.272.49-.272 1.117-.616 1.607a.532.532 0 00-.136.278l-.549 1.957-.752 2.236-.137.279c-.204.63-.34 1.258-.616 1.885-.341.838-.685 1.607-.89 2.445 0 .14-.067.278-.136.348-.548 1.189-.889 2.375-1.369 3.564-.204.279-.068.56-.273.838-.48 1.328-.889 2.445-1.164 3.773.341.838.48 1.047 1.233 1.537l.548.278c0 .07.068.07.136.07h.068c.48-.278.412-.699.685-.977.068-.07.068-.14.068-.21l.548-.977c0-.209.137-.35.205-.629l.205-.42c.48-.908.82-1.816 1.3-2.726.205-.56.412-1.12.753-1.746.548-1.047 1.026-2.236 1.574-3.283.205-.348.205-.699.412-.977l.204-.42.617-1.047c.068-.28.136-.56.341-.769.341-.768.684-1.189.957-1.957l.753-1.537c.616-1.328 1.301-2.375 1.917-3.703.341-.63.685-1.19.957-1.958.753-1.119 1.233-2.375 1.986-3.494l2.054-3.982c.204-.49.479-.838.684-1.328.548-1.047 1.165-1.957 1.71-3.004a1.61 1.61 0 01.48-.978c.273-.348.48-.768.685-1.116 0 .07.068 0 .204-.14v-.209c0-.07.069-.139.205-.278.068.279 0 .42-.205.49 0 .209-.068.56-.273.908-.272.49-.616.907-.821 1.676 0 .046-.022.093-.068.14-.204.278-.204.628-.411.977-.205.278-.205.698-.48.977l-.137.279a3.76 3.76 0 01-.48 1.328c-.341.56-.411 1.188-.616 1.745l-.136.28c-.273.559-.341 1.118-.549 1.675 0 .14-.068.279-.136.49-.48 1.047-.753 1.958-1.094 3.005-.068.49-.068.768-.341 1.258l-.068.07v.139c.068.49-.136.838-.205 1.328 0 .209.069.209.069.42 0 .212-.069.279-.069.49 0 .212-.068.21 0 .42a.782.782 0 010 .56c-.068.07-.068.279-.068.63 0 .661-.105 1.36-.066 2.016.047.781.419 1.316.794 2.002.176.319.356.645.631.878.276.234.673.351.999.2a.636.636 0 00.3-.282c.051-.1.073-.214.1-.323.229-.96.865-1.706 1.349-2.532.617-1.047 1.165-1.957 1.779-2.865.821-1.328 1.71-2.653 2.531-4.051.204-.279.273-.49.48-.838.48-.49.616-1.047 1.094-1.607.48-.56.821-1.12 1.164-1.676.341-.49.616-.978 1.096-1.468.617-.768 1.094-1.537 1.847-2.305.548-.56 1.025-1.189 1.642-1.816l.204-.139.069-.07c0 .047-.023.07-.069.07 0 .209 0 .42-.068.49-.273.768-.411 1.328-.753 2.097-.204.56-.341 1.188-.548 1.815-.272.63-.48 1.328-.821 1.958-.204.768-.341 1.328-.616 2.096-.205.49-.205 1.047-.548 1.537-.068.07-.068.14-.068.279l-.958 2.795c-.204.49-.273.699-.204 1.189-.205.07-.273.209-.273.348 0 .209 0 .348-.068.42-.341.49-.341 1.047-.548 1.537-.205.349-.069.7-.273 1.047-.273.63-.341 1.259-.548 1.886l-.753 3.074c-.205.907-.273 2.096-.273 2.934-.068.49 0 1.047.136 1.746l.137 1.537c.204.838.48 1.607.821 2.236a6.02 6.02 0 001.301 1.676c.616.56 1.232.908 1.849 1.12.752-.21.684-.07.889-.28a10.246 10.246 0 001.71-1.745c.48-.769.889-1.259 1.233-2.027.48-.838 1.025-1.607 1.573-2.445 1.094-1.885 2.122-3.564 3.148-5.519.548-1.047 1.094-2.096 1.574-3.143l1.293-2.838c-.066 1.261-.119 2.405.078 3.676l.616 2.166a9.7 9.7 0 002.122 3.213c.753.769 1.438 1.117 2.259 1.468.616.209 1.093.07 1.505-.279.616-.56 1.165-1.258 1.642-2.096.548-1.047 1.026-2.027 1.369-3.074l.958-2.726c.204-.49.341-.838.548-1.189.045 0 .068.023.068.07.273.209.412.278.412.278.752.769 1.369 1.259 2.394 1.746.548.279 1.165.279 1.779.07 0 .07.068-.07.204-.279.48-.209.617-.49.889-.977.205-.279.412-.699.685-.977l.088-.17c-.037.271-.049.535.048.799-.204.56-.136 1.188-.204 1.815-.205 1.885-.068 3.144.273 4.75.411 1.746 1.369 3.283 2.806 4.611.48.349.957.63 1.437.908.205.21.548.21.89.14.479-.21.752-.351.889-.56a6.28 6.28 0 001.778-2.027c.205-.49.48-.769.753-1.258a28.486 28.486 0 001.846-3.425c.89-1.676 1.642-3.425 2.463-5.17l.617-1.329.009-.022c-.012 1.199.025 2.407.195 3.586.137 1.047.48 2.166.958 3.283.821 1.398 1.71 2.584 3.011 3.634 1.301.907 3.284.768 4.86.838.341-.07.684 0 .957-.21.821-.208 1.437-.768 2.19-1.327.412-.349.821-.838 1.301-1.468.273-.278.48-.56.685-.838.548-.768 1.025-1.537 1.505-2.305a23.16 23.16 0 001.118-2.04 10.5 10.5 0 00.183 1.55c.205 1.328.753 2.445 1.506 3.494a9.061 9.061 0 003.763 2.726 2.23 2.23 0 001.642 0c.548-.209 1.094-.56 1.642-1.12l1.438-1.745c.479-.49.889-1.12 1.3-1.746.617-.769 1.094-1.676 1.642-2.514l1.574-2.85v5.155c0 .279.068.49.137.768.068.63.341 1.19.821 1.677l1.232 1.467c.48.63.958.977 1.506 1.259.204.139.411.139.684 0l.617-.769c.479-1.047.957-1.746 1.437-2.795.48-1.12 1.025-2.236 1.505-3.425l1.642-4.68c.341-.77.548-1.607 1.026-2.445 0 .348.068.56 0 .768-.205.49-.136.838-.136 1.189v3.703c0 .838.068 1.607.204 2.375.273 1.607.821 2.935 1.642 4.124.341.49.685.838 1.094 1.047.205.07.412.209.684.42.411 0 .708-.07.89-.209.48-.278.889-.629 1.301-1.119.616-.768 1.093-1.607 1.573-2.445l.821-1.815c.439-.958.76-1.741 1.075-2.669-.013.281-.018.567-.049.853-.205 1.885-.068 3.144.273 4.75.411 1.746 1.369 3.283 2.806 4.611.48.349.957.63 1.437.908.205.21.549.21.89.14.479-.21.752-.351.889-.56a6.274 6.274 0 001.778-2.027c.205-.49.48-.769.753-1.258a28.967 28.967 0 001.849-3.425c.889-1.676 1.642-3.425 2.463-5.17l.616-1.329.01-.022c-.012 1.199.024 2.407.195 3.586.136 1.047.48 2.166.957 3.283.821 1.398 1.71 2.584 3.011 3.634 1.301.907 3.284.768 4.86.838.341-.07.685 0 .958-.21.821-.208 1.437-.768 2.19-1.327.411-.349.821-.838 1.301-1.468a7.52 7.52 0 00.684-.838c.548-.768 1.026-1.537 1.506-2.305.821-1.328 1.437-2.654 2.053-4.124.548-1.328.821-2.726 1.301-4.051.205-.49.137-.699.341-1.189.068-.348.068-.699 0-.908l.032.045zm-14.919.209c.205-.56.412-1.189.753-1.746.068-.07.205-.209.273-.42.068-.14.204-.279.273-.49.48-.49.752-.908 1.232-1.398.48-.63 1.233-1.047 2.259-1.189.068.21.136.14.204.348.48 1.468.753 2.866.273 4.472-.136.7-.48 1.328-.957 1.957-.273.279-.548.49-.753.769-.48.35-.958.49-1.369.49-.617.07-1.301.07-1.917-.14-.273-.069-.617-.208-.685-.49 0-.768.136-1.467.412-2.166l.002.003zm-64.947 0c.205-.56.412-1.189.753-1.746.068-.07.205-.209.273-.42.068-.14.205-.279.273-.49.48-.49.753-.908 1.232-1.398.48-.63 1.233-1.047 2.259-1.189.068.21.136.14.204.348.48 1.468.753 2.866.273 4.472-.136.7-.48 1.328-.957 1.957-.273.279-.548.49-.753.769-.48.35-.957.49-1.369.49-.616.07-1.301.07-1.917-.14-.273-.069-.617-.208-.685-.49 0-.768.137-1.467.412-2.166l.002.003zm-53.382-16.35c.068.21 0 .279-.205.21l.205-.21zm28.13 14.813c-1.779.348-2.602 4.82-1.165 6.078-.341 1.677-.341 1.537-1.096 3.214-.48.838-.753 1.745-1.233 2.514l-.273.63c-.341.347-.48.768-.684 1.046-.48.49-.889.978-1.369 1.189-.341.209-.548.279-.685.279l-.341-.908c-.205-.35-.341-.908-.341-1.398-.068-.768 0-1.328-.068-1.957-.068-.07 0-.279.068-.49-.205-.49-.136-1.12-.068-1.676v-.908c.204-.63.204-1.12.273-1.676.045 0 .068-.024.068-.07 0-.769.341-1.537.548-2.306.136-.838.341-1.536.685-2.096a8.99 8.99 0 00.821-2.027c.204-.348.341-.769.616-1.12.205-.347.205-.698.548-.977l.616-.977c.205-.209.273-.42.48-.699.341-.209.548-.42 1.165-.63.204.21.411.14.684.35.341.489.412.837.341 1.118.205.769.205 1.328.412 1.885.068.56 0 1.12 0 1.607l-.002.005z"/><path d="M105.693 39.111v-.067l.067.067h-.067zM126.97 72.03h-1.137l-2.317 3.25h-.992v-3.25h-.925v8.075h.925v-3.927h1.043l2.555 3.927h1.116l-2.887-4.43 2.619-3.645zm5.918-.09c-2.169 0-3.806 1.766-3.806 4.116 0 2.35 1.601 4.121 3.806 4.121 2.204 0 3.805-1.729 3.805-4.121 0-2.392-1.637-4.116-3.805-4.116zm0 7.347c-1.642 0-2.836-1.338-2.836-3.231 0-1.893 1.218-3.216 2.836-3.216 1.617 0 2.835 1.36 2.835 3.216 0 1.855-1.193 3.23-2.835 3.23zm10.509-6.347v-1.102h-.899v1.102c-1.389 0-3.542.639-3.542 2.972 0 1.649 1.301 3.019 3.542 3.019v1.266h.899V78.93c2.241 0 3.542-1.37 3.542-3.02 0-2.335-2.153-2.971-3.542-2.971zm-.899 5.098c-1.389 0-2.597-.748-2.597-2.124 0-1.375.987-2.067 2.597-2.067v4.191zm.899 0v-4.19c1.615 0 2.602.738 2.602 2.066 0 1.328-1.213 2.124-2.602 2.124zm7.06-1.855h2.758v-.89h-2.758V72.93h3.082v-.9h-4.005v8.075h4.119v-.89h-3.196v-3.032zm13.825 3.104c-1.647 0-2.841-1.333-2.841-3.231s1.223-3.216 2.836-3.216c.687 0 1.189.249 1.693.721l.784-.537c-.682-.701-1.486-1.087-2.477-1.087-2.168 0-3.8 1.771-3.8 4.117 0 2.345 1.6 4.12 3.805 4.12 1.098 0 2.107-.427 2.782-1.196l-.719-.616c-.567.626-1.264.922-2.066.922l.003.003zm13.25 0c-1.647 0-2.841-1.333-2.841-3.231s1.223-3.216 2.836-3.216c.687 0 1.189.249 1.693.721l.784-.537c-.682-.701-1.486-1.087-2.477-1.087-2.168 0-3.8 1.771-3.8 4.117 0 2.345 1.6 4.12 3.805 4.12 1.098 0 2.107-.427 2.782-1.196l-.719-.616c-.567.626-1.264.922-2.066.922l.003.003zm8.685-7.347c-2.169 0-3.806 1.766-3.806 4.116 0 2.35 1.601 4.121 3.806 4.121 2.204 0 3.805-1.729 3.805-4.121 0-2.392-1.637-4.116-3.805-4.116zm0 7.347c-1.642 0-2.836-1.338-2.836-3.231 0-1.893 1.218-3.216 2.836-3.216 1.617 0 2.835 1.36 2.835 3.216 0 1.855-1.193 3.23-2.835 3.23zm8.594-3.999h-1.274v-2.363h3.206v-.895h-4.132v8.075h2.449c1.581 0 2.402-.865 2.402-2.452 0-1.418-1.038-2.368-2.648-2.368l-.003.003zm-.17 3.927h-1.106v-3.037h1.315c1.074 0 1.657.512 1.657 1.475 0 .962-.295 1.56-1.869 1.56l.003.002zm8.872-7.275c-2.168 0-3.805 1.766-3.805 4.116 0 2.35 1.6 4.121 3.805 4.121s3.805-1.729 3.805-4.121c0-2.392-1.637-4.116-3.805-4.116zm0 7.347c-1.642 0-2.836-1.338-2.836-3.231 0-1.893 1.218-3.216 2.836-3.216 1.618 0 2.836 1.36 2.836 3.216 0 1.855-1.194 3.23-2.836 3.23zm9.362-8.137c.738 0 1.615-.424 1.91-1.356l-.806-.212c-.186.49-.578.754-1.106.754-.529 0-.868-.254-1.089-.754l-.821.212c.299.932 1.198 1.355 1.91 1.355h.002zm-2.049 6.724V72.03h-.926v8.353l5.026-6.113v5.835h.923v-8.362l-5.023 6.131zM75.876 46.028l2.59-19.77-17.14-8.39a.557.557 0 00-.011-.067L57.573 3.367a.48.48 0 00-.587-.35.492.492 0 00-.343.599l3.741 14.434c.005.02.014.039.02.057l-12.64 13.545-16.471-.475-6.911-13.06a.475.475 0 00-.653-.199.496.496 0 00-.194.667l6.647 12.56-1.296-.037-.738 1.224-6.674-12.611a.475.475 0 00-.653-.198.496.496 0 00-.194.666L27.564 33.3l-8.471 14.047-14.577-1.079a.485.485 0 00-.515.454.49.49 0 00.445.526l14.466 1.072 7.82 14.773-7.102 13.035a.497.497 0 00.188.668c.149.085.322.08.462.002a.504.504 0 00.192-.193l6.803-12.487.666 1.261 1.305.037-6.728 12.35a.497.497 0 00.187.669c.15.085.323.08.463.002a.504.504 0 00.192-.193l6.972-12.798 16.433.473 6.787 12.82c.127.24.418.328.653.198a.496.496 0 00.194-.666l-6.787-12.82 9.61-15.935 18.658-3.49-.004.002zm-.86-.836l-17.829 3.335-8.627-16.301 12.504-13.397 16.356 8.005-2.405 18.355v.003zm-55.18 2.807l9.58-15.888 18.252.525 8.695 16.428L46.79 64.94l-18.268-.526L19.833 48h.003z"/><path d="M50.904 31.516a.496.496 0 00-.194.666l6.952 13.136c.126.24.417.328.652.199a.496.496 0 00.194-.666l-6.952-13.137a.475.475 0 00-.652-.198zm22.756 7.099a.486.486 0 00.54-.422l1.389-10.596a.486.486 0 00-.413-.55.481.481 0 00-.54.421l-1.389 10.596a.486.486 0 00.414.551z"/></g><defs><clipPath id="clip0_26_133"><path fill="#fff" d="M0 0h247v82H0z"/></clipPath></defs></svg>