<svg width="106" height="107" viewBox="0 0 106 107" fill="none" xmlns="http://www.w3.org/2000/svg"><ellipse cx="53" cy="83.5" rx="53" ry="23.5" fill="#D37E56" fill-opacity=".23"/><path d="M81.284 11.658C73.73 4.14 63.684 0 53 0 42.316 0 32.27 4.14 24.716 11.658 17.16 19.177 13 29.172 13 39.804c0 18.758 13.178 34.951 31.484 38.897L53 90l8.516-11.299C79.822 74.755 93 58.561 93 39.804c0-10.632-4.16-20.628-11.716-28.146zM53 10.391c16.2 0 29.38 13.116 29.38 29.237S69.2 68.865 53 68.865 23.62 55.749 23.62 39.628c0-16.12 13.18-29.237 29.38-29.237z" fill="#D37E56"/><g clip-path="url(#clip0_2252_27)"><path d="M53 69c16.569 0 30-13.431 30-30C83 22.431 69.569 9 53 9 36.431 9 23 22.431 23 39c0 16.569 13.431 30 30 30z" fill="#000"/><path d="M56.776 31.553a.5.5 0 01.671.223l3.5 7a.5.5 0 11-.894.448l-3.5-7a.5.5 0 01.224-.671zm12.584-1.479a.5.5 0 00-.989-.148l-.537 3.592a.5.5 0 10.99.148l.536-3.592z" fill="#fff"/><path fill-rule="evenodd" clip-rule="evenodd" d="M70.051 40.195l-.43-.43-9.706 1.777-4.98 8.092 3.56 6.588a.662.662 0 01-.268.894.662.662 0 01-.893-.268l-.001-.001-3.561-6.589-8.414-.236-3.652 6.563a.653.653 0 01-.256.26l-.009.005a.66.66 0 01-.892-.895l.002-.002 3.318-5.97-.282-.009-.125-.23-3.32 5.974a.654.654 0 01-.256.26l-.008.006a.66.66 0 01-.892-.895l.001-.003 3.734-6.714-3.604-6.677-.061.1v-.213l-.352-.652-7.607-.551a.66.66 0 01.101-1.313h.002l7.64.554 4.335-7.04-3.64-6.74a.662.662 0 01.267-.894.662.662 0 01.894.267l.001.002 3.279 6.068.154-.25.243.005-3.269-6.048a.662.662 0 01.267-.894.662.662 0 01.894.268l.001.001 3.629 6.713 8.496.238 6.557-6.883-1.975-7.468a.66.66 0 011.28-.326l1.984 7.501 9.359 4.491-1.545 11.564zm.108-10.782l-1.226 9.145-9.063 1.662-4.392-8.122 6.363-6.677 8.318 3.992zM44.394 48.678l-4.475-8.285 4.94-8.022 9.406.264 4.482 8.295-4.936 8.013-9.417-.264z" fill="#fff"/></g><defs><clipPath id="clip0_2252_27"><path fill="#fff" transform="translate(23 9)" d="M0 0h60v60H0z"/></clipPath></defs></svg>