<svg xmlns="http://www.w3.org/2000/svg"><symbol id="search-ic" viewBox="0 0 52 52"><path class="search-icon__background" d="M0 0h52v52H0z"/><path d="M22.438 37.875a15.376 15.376 0 009.131-2.988h-.002c.071.095.147.185.233.273l9.143 9.144a2.375 2.375 0 103.361-3.358l-9.144-9.144a2.393 2.393 0 00-.273-.237 15.368 15.368 0 002.988-9.128A15.443 15.443 0 0022.437 7a15.438 15.438 0 000 30.875zm0-20.23c3.952-3.974 13.834 2.978 0 11.918-13.835-8.94-3.953-15.89 0-11.918z" fill="#fff"/></symbol><symbol id="prev-arrow-ic" viewBox="0 0 45 53"><path d="M44.688 52.771a.913.913 0 00.233-1.041L34.276 26.503 44.922 1.277c.354-.753-.566-1.615-1.278-1.142L.444 25.718c-.587.32-.596 1.252 0 1.571l43.2 25.583a.87.87 0 001.044-.1z"/></symbol><symbol id="next-arrow-ic" viewBox="0 0 45 53"><path d="M.312.229A.913.913 0 00.078 1.27l10.647 25.227L.078 51.723c-.354.753.566 1.615 1.278 1.142l43.2-25.583c.587-.32.596-1.252 0-1.571L1.356.128a.871.871 0 00-1.044.1z"/></symbol></svg>