<svg width="26" height="26" viewBox="0 0 26 26" fill="none" xmlns="http://www.w3.org/2000/svg"><g clip-path="url(#clip0_2152_21)"><path fill-rule="evenodd" clip-rule="evenodd" d="M1.828 1.828C0 3.655 0 6.597 0 12.48v1.04c0 5.883 0 8.825 1.828 10.652C3.655 26 6.597 26 12.48 26h1.04c5.883 0 8.825 0 10.652-1.828C26 22.345 26 19.403 26 13.52v-1.04c0-5.883 0-8.825-1.828-10.652C22.345 0 19.403 0 13.52 0h-1.04C6.597 0 3.655 0 1.828 1.828zm2.56 6.08c.14 6.76 3.52 10.823 9.446 10.823h.336v-3.868c2.178.217 3.824 1.81 4.485 3.868h3.077c-.845-3.077-3.066-4.778-4.453-5.428 1.387-.801 3.337-2.751 3.803-5.395h-2.795c-.607 2.145-2.405 4.095-4.117 4.28v-4.28h-2.795v7.497c-1.733-.433-3.922-2.535-4.02-7.497H4.389z" fill="#fff"/></g><defs><clipPath id="clip0_2152_21"><path fill="#fff" d="M0 0h26v26H0z"/></clipPath></defs></svg>