<svg width="26" height="26" viewBox="0 0 26 26" fill="none" xmlns="http://www.w3.org/2000/svg"><path d="M25.741 7.8s-.254-1.792-1.036-2.58c-.99-1.035-2.097-1.04-2.605-1.101-3.636-.265-9.095-.265-9.095-.265h-.01s-5.46 0-9.095.265c-.508.06-1.615.066-2.605 1.102C.513 6.008.265 7.8.265 7.8S0 9.907 0 12.01v1.97c0 2.103.259 4.21.259 4.21s.254 1.793 1.03 2.58c.991 1.036 2.291 1 2.87 1.112 2.082.198 8.841.259 8.841.259s5.464-.01 9.1-.27c.508-.06 1.615-.065 2.605-1.101.782-.787 1.036-2.58 1.036-2.58S26 16.088 26 13.98v-1.97c0-2.102-.259-4.21-.259-4.21zm-15.427 8.572V9.065l7.023 3.666-7.023 3.641z" fill="#fff"/></svg>