<?xml version="1.0" encoding="UTF-8" standalone="no"?>
<!DOCTYPE svg PUBLIC "-//W3C//DTD SVG 1.1//EN" "http://www.w3.org/Graphics/SVG/1.1/DTD/svg11.dtd">
<svg width="100%" height="100%" viewBox="0 0 1000 1000" version="1.1" xmlns="http://www.w3.org/2000/svg" xmlns:xlink="http://www.w3.org/1999/xlink" xml:space="preserve" xmlns:serif="http://www.serif.com/" style="fill-rule:evenodd;clip-rule:evenodd;stroke-linejoin:round;stroke-miterlimit:2;">
    <path d="M1000,200C1000,89.617 910.383,0 800,0L200,0C89.617,0 0,89.617 0,200L0,800C0,910.383 89.617,1000 200,1000L800,1000C910.383,1000 1000,910.383 1000,800L1000,200Z" style="fill:white;"/>
    <path d="M212.913,515.209C229.132,515.233 239.628,456.519 268.644,392.773C339.297,254.78 403.318,169.849 455.958,175.964C449.688,279.694 379.729,435.967 356.496,515.209L239.628,848.501C239.628,848.501 243.958,871.883 271.979,878.798C271.979,878.798 463.884,464.176 597.942,258.588C597.942,258.588 413.198,593.145 523.2,663.15C523.2,663.15 635.73,473.419 750.365,342.209C750.365,342.209 539.465,860.429 700.232,885.714C732.622,890.809 802.99,774.575 802.99,741.787C802.99,709 784.593,711.101 767.479,735.196C750.365,759.292 690.071,836.389 690.071,836.389C690.071,836.389 662.776,836.389 780.786,467.517C811.332,372.037 820.555,319.033 785.46,288.81C764.102,270.418 756.28,273.853 735.248,288.81C716.759,301.96 642.754,395.599 594.211,481.473C587.63,473.011 717.255,190.63 694.499,158.949C694.499,158.949 660.187,103.655 638.487,129.724C616.786,155.793 532.894,272.298 470.447,400.649C470.447,400.649 559.346,126.638 419.162,126.638C278.979,126.638 190.986,400.649 190.986,467.517C190.986,509.209 203.826,515.209 212.913,515.209Z" style="fill:rgb(35,19,0);"/>
</svg>
