<svg width="247" height="82" viewBox="0 0 247 82" fill="none" xmlns="http://www.w3.org/2000/svg">
<g clip-path="url(#clip0_26_133)">
<path d="M246.949 46.0301C246.676 45.7515 246.401 45.3312 245.923 45.2616C245.443 46.5897 244.966 47.7063 244.418 48.8951L243.392 51.131C242.912 52.2502 242.435 53.2972 241.818 54.3442C241.27 55.3913 240.586 56.4408 239.765 57.5575C239.217 58.326 238.671 58.9552 237.918 59.5844C237.165 60.144 236.344 60.5618 235.455 60.6315C234.359 60.7707 233.47 60.4922 232.785 59.7933C232.305 59.3034 232.101 58.8159 231.828 58.2563C231.28 56.8586 231.212 55.4609 231.143 53.9936C231.075 52.6655 231.28 51.3374 231.28 49.9422L231.416 49.7333C231.621 49.6636 231.689 49.8726 231.896 49.9422C232.512 50.4321 233.129 50.85 233.882 51.2006C234.498 51.5488 235.182 51.6906 235.935 51.6906C236.276 51.6906 236.62 51.6209 236.893 51.4817C237.509 51.2031 237.918 50.7132 238.398 50.2232C238.739 49.8726 238.946 49.3851 239.083 48.8255C239.424 47.9177 239.631 47.0796 239.631 46.1718C239.563 45.6819 239.494 45.4033 239.494 45.0527C239.494 44.2842 239.29 43.7246 239.083 42.9561C238.878 42.1876 238.466 41.5584 237.986 41.0709L237.575 40.581C237.37 40.3721 237.302 40.1607 237.095 39.9518C236.754 39.6732 236.41 39.3922 236.069 39.1833C235.18 38.5541 234.291 38.4844 233.263 38.9047C232.783 39.1136 232.305 39.3947 231.757 39.8821C231.277 40.2328 231.073 40.6506 230.732 41.1406C230.252 41.7698 229.774 42.5383 229.431 43.3068C229.285 43.7047 228.754 44.6025 228.388 45.2865C228.371 45.279 228.354 45.2691 228.337 45.2616C227.721 46.6593 226.49 48.5445 225.942 49.6636C225.462 50.5018 225.258 51.4095 224.778 52.2477C223.684 54.4835 222.588 56.7194 221.287 58.7463C220.807 59.3755 220.466 60.0047 219.986 60.5618L218.753 61.8899C218.273 62.3102 217.728 62.5191 217.248 62.5191C217.18 62.1709 217.043 61.9595 217.043 61.7506C217.043 60.8429 216.975 60.0047 217.043 59.1666C217.248 58.3285 217.111 57.4207 217.316 56.5826V56.2319C217.248 56.023 217.316 55.8116 217.316 55.6027C217.316 55.0431 217.452 54.5556 217.521 53.9961C217.589 53.2276 217.793 52.3894 217.725 51.6209C217.725 51.412 217.794 51.4817 217.794 51.2728C217.998 50.6435 218.135 50.0143 218.205 49.3876C218.41 48.3405 218.41 47.4999 218.617 46.5922C218.822 45.8237 218.89 45.1248 219.097 44.3563L219.233 43.2371L219.506 42.1901C219.711 41.1431 219.779 40.2328 220.122 39.325C220.327 38.6958 220.395 38.0666 220.602 37.2981C220.807 36.5296 220.875 35.8308 221.082 35.0623C221.15 34.5723 221.355 34.0849 221.423 33.5949C221.492 33.105 221.696 32.6175 221.696 32.1276C221.764 31.6376 221.901 31.2894 221.969 31.0084C222.174 30.7299 222.174 30.3792 222.242 30.1006C222.242 30.031 222.31 29.8221 222.378 29.541C222.446 29.2625 222.446 28.9118 222.651 28.5636L222.788 27.6559C223.129 26.5367 223.472 25.42 223.745 24.2312C223.813 23.7413 223.881 23.4627 224.086 22.9728L224.222 22.4828L224.427 21.5751C224.495 21.0851 224.563 20.8066 224.768 20.4559C224.836 19.8963 224.973 19.4089 225.041 19.0582C225.246 18.4986 225.246 17.8694 225.453 17.3123C225.521 17.0338 225.453 16.8224 225.453 16.5438L224.632 15.7057C224.563 15.4968 224.427 15.4271 224.291 15.4968C223.95 15.7057 223.95 16.0564 223.742 16.3349L222.922 18.1504L222.237 20.0356C221.757 21.0826 221.484 22.0625 221.004 23.1096C220.663 24.2287 220.32 25.3454 219.84 26.3925C219.84 26.4621 219.772 26.5317 219.703 26.7406L219.155 28.8372L218.744 29.8843C218.539 30.6528 218.264 31.4212 218.059 32.2594C217.854 32.8886 217.718 33.5178 217.511 34.0749L216.826 36.6589C216.758 37.1489 216.622 37.4971 216.554 37.8477C216.349 38.3377 216.212 38.8251 216.142 39.3847L215.594 41.7598C215.525 42.3891 215.321 42.9487 215.253 43.5754C215.184 44.4135 214.98 45.182 214.773 45.9505V45.9654C214.5 46.5076 214.237 46.9428 214.02 47.5571C213.54 48.6763 213.267 49.8626 212.787 50.9096C212.307 52.2377 211.898 53.5658 211.35 54.8914C210.802 56.0081 210.393 57.1969 209.64 58.2439C209.299 58.7339 208.887 59.2213 208.546 59.572C208.273 59.8505 207.93 59.9923 207.589 60.0619C207.52 59.9923 207.452 59.853 207.452 59.7834C207.248 59.2238 207.179 58.7363 207.179 58.2464C207.179 56.9183 207.043 55.5902 207.248 54.2647L207.452 51.2603C207.657 50.2133 207.589 49.3751 207.793 48.3256L207.93 47.6268C207.93 47.0672 207.998 46.438 208.066 45.8809C208.134 45.3909 208.203 45.1124 208.203 44.6224C208.203 43.8539 208.271 43.2247 208.475 42.6651C208.68 42.2448 208.816 41.827 208.887 41.4067C208.955 40.9167 209.228 40.6382 209.023 40.1482L208.544 39.519C208.203 38.9594 207.791 38.7505 207.311 38.2606C207.106 38.191 206.97 38.1213 206.831 38.1213L206.351 38.8898C206.146 39.6583 205.871 40.2179 205.667 40.9864L204.025 45.3884L203.476 46.6469L201.903 50.6982C201.15 52.5834 200.534 54.4711 199.508 56.217C198.96 57.264 198.344 58.3135 197.73 59.3606C197.661 59.5695 197.525 59.6391 197.389 59.5695C197.389 59.3606 197.32 59.0796 197.32 58.8706C197.32 58.3807 197.32 57.8236 197.389 57.3337C197.389 56.7044 197.457 56.1449 197.457 55.5878C197.457 55.0307 197.661 54.4711 197.73 53.9115L198.278 51.3971L198.826 49.0916C199.031 48.4624 199.031 47.7635 199.238 47.2064C199.442 46.438 199.51 45.8784 199.718 45.2492C199.99 44.13 200.334 43.0133 200.538 41.9663C200.743 41.1978 200.95 40.5686 200.743 39.8001C200.263 39.1708 200.127 38.472 199.374 37.9845L198.417 38.1934L198.005 38.753L197.184 40.5686C196.563 42.1254 196.083 43.6823 195.664 45.2765L194.857 46.8558L192.256 51.5364C191.503 52.6555 191.023 53.7722 190.27 54.8193C189.518 55.727 188.969 56.6348 188.217 57.4729C187.876 57.9629 187.532 58.3111 187.052 58.801C186.572 59.3606 185.956 59.848 185.203 60.2684C184.723 60.5469 184.246 60.5469 183.766 60.5469C183.561 60.4773 183.286 60.338 183.081 60.1266C182.808 59.7063 182.601 59.2188 182.465 58.6592C182.397 58.03 182.26 57.3312 182.26 56.7019V56.1424C182.192 55.6524 182.124 55.3042 182.192 55.0953C182.192 54.7447 182.26 54.3965 182.192 54.0483C182.192 53.5583 182.26 53.3494 182.329 52.8595V52.0213C182.67 50.3451 183.081 48.6688 183.698 47.0597C184.039 46.2216 184.382 45.3835 184.862 44.5453C184.862 44.4757 184.93 44.4061 184.999 44.1971C185.271 43.8465 185.547 43.4983 185.751 43.1501C186.299 42.312 186.916 41.6131 187.669 40.9839C187.873 40.8446 188.08 40.775 188.148 40.8446C188.628 41.4738 188.421 42.1031 188.421 42.8716C188.626 43.1501 188.833 43.2919 189.106 43.2919C189.859 42.8019 190.063 42.1727 189.859 41.2649C189.722 40.9143 189.518 40.6357 189.174 40.4268C189.038 40.3572 188.833 40.1482 188.558 39.8672C188.353 39.6583 188.217 39.519 188.078 39.4469L186.982 38.748C185.956 38.6784 185.135 38.957 184.45 39.5862C183.629 40.4243 182.877 41.1928 182.397 42.2423C182.329 42.4512 182.192 42.5905 182.124 42.6626C181.783 43.1526 181.508 43.64 181.303 44.2693C180.962 45.1074 180.618 45.9455 180.346 46.7837C180.324 46.8558 180.304 46.9279 180.282 46.9975C180.019 47.6317 179.746 48.246 179.456 48.8777L178.431 51.1136C177.951 52.2327 177.473 53.2798 176.857 54.3268C176.309 55.3739 175.624 56.4234 174.803 57.5401C174.255 58.3086 173.71 58.9378 172.957 59.567C172.204 60.1266 171.383 60.5444 170.494 60.6141C169.398 60.7533 168.508 60.4748 167.824 59.7759C167.344 59.286 167.139 58.7985 166.867 58.2389C166.318 56.8412 166.25 55.4435 166.182 53.9762C166.114 52.6481 166.318 51.32 166.318 49.9248L166.455 49.7159C166.659 49.6462 166.728 49.8551 166.935 49.9248C167.551 50.4147 168.167 50.8325 168.92 51.1832C169.537 51.5314 170.221 51.6732 170.974 51.6732C171.315 51.6732 171.658 51.6035 171.931 51.4643C172.548 51.1857 172.957 50.6958 173.437 50.2058C173.778 49.8551 173.985 49.3677 174.121 48.8081C174.462 47.9003 174.669 47.0622 174.669 46.1544C174.601 45.6645 174.533 45.3859 174.533 45.0353C174.533 44.2668 174.328 43.7072 174.121 42.9387C173.917 42.1702 173.505 41.541 173.025 41.0535L172.613 40.5636C172.409 40.3547 172.34 40.1433 172.133 39.9344C171.792 39.6558 171.449 39.3748 171.108 39.1659C170.219 38.5366 169.329 38.467 168.301 38.8873C167.821 39.0962 167.344 39.3773 166.796 39.8647C166.316 40.2154 166.111 40.6332 165.77 41.1232C165.29 41.7524 164.813 42.5209 164.469 43.2894C164.323 43.6873 163.792 44.5851 163.427 45.2691C163.41 45.2616 163.393 45.2516 163.373 45.2442C162.757 46.6419 161.527 48.5271 160.978 49.6462C160.499 50.4844 160.294 51.3921 159.814 52.2303C158.72 54.4661 157.624 56.7019 156.323 58.7289C155.843 59.3581 155.502 59.9873 155.022 60.5444L153.789 61.8725C153.31 62.2928 152.764 62.5017 152.284 62.5017C152.216 62.1535 152.079 61.9421 152.079 61.7332C152.079 60.8255 152.011 59.9873 152.079 59.1492C152.284 58.3111 152.148 57.4033 152.352 56.5652V56.2145C152.284 56.0056 152.352 55.7942 152.352 55.5853C152.352 55.0257 152.489 54.5382 152.557 53.9786C152.625 53.2101 152.83 52.372 152.761 51.6035C152.761 51.3946 152.83 51.4643 152.83 51.2553C153.034 50.6261 153.171 49.9969 153.241 49.3702C153.446 48.3231 153.446 47.4825 153.653 46.5747C153.858 45.8063 153.926 45.1074 154.133 44.3389L154.269 43.2197L154.542 42.1727C154.747 41.1257 154.815 40.2154 155.159 39.3076C155.363 38.6784 155.431 38.0492 155.638 37.2807C155.843 36.5122 155.911 35.8133 156.118 35.0449C156.187 34.5549 156.391 34.0674 156.459 33.5775C156.528 33.0876 156.732 32.6001 156.732 32.1102C156.801 31.6202 156.937 31.272 157.005 30.991C157.21 30.7124 157.21 30.3618 157.278 30.0832C157.278 30.0136 157.346 29.8047 157.414 29.5236C157.483 29.2451 157.483 28.8944 157.687 28.5462L157.824 27.6385C158.165 26.5193 158.508 25.4026 158.781 24.2138C158.849 23.7239 158.917 23.4453 159.122 22.9554L159.259 22.4654L159.463 21.5577C159.531 21.0677 159.6 20.7892 159.804 20.4385C159.872 19.8789 160.009 19.3915 160.077 19.0408C160.282 18.4812 160.282 17.852 160.489 17.2949C160.557 17.0163 160.489 16.8049 160.489 16.5264L159.668 15.6883C159.6 15.4794 159.463 15.4097 159.327 15.4794C158.986 15.6883 158.986 16.0389 158.779 16.3175L157.958 18.133L157.273 20.0182C156.793 21.0652 156.52 22.0451 156.04 23.0922C155.699 24.2113 155.356 25.328 154.876 26.3751C154.876 26.4447 154.808 26.5143 154.74 26.7232L154.191 28.8198L153.78 29.8668C153.575 30.6353 153.3 31.4038 153.095 32.242C152.891 32.8712 152.754 33.5004 152.547 34.0575L151.863 36.6415C151.794 37.1315 151.658 37.4797 151.59 37.8303C151.385 38.3203 151.249 38.8077 151.178 39.3673L150.63 41.7424C150.562 42.3717 150.357 42.9312 150.289 43.558C150.225 44.329 150.048 45.0402 149.858 45.7466C149.697 46.244 149.519 46.5449 149.261 47.1194C148.781 48.5171 148.096 49.3552 147.482 50.6833C146.386 53.7573 143.239 52.5685 143.239 49.3552V48.5171C143.443 47.7486 143.58 46.7712 143.65 45.8635C143.855 44.8164 143.65 44.1176 143.446 43.068C143.241 42.5781 143.034 42.1603 142.966 41.6703C142.761 41.1804 142.693 40.8322 142.486 40.4815C142.281 39.9916 141.87 39.5737 141.253 39.2231C141.253 39.0838 141.117 39.0142 140.773 39.0142C140.705 38.9445 140.5 39.0142 140.432 38.8053C140.228 38.5267 139.884 38.3153 139.475 38.176C138.927 37.6861 138.242 37.7557 137.489 37.9671C137.421 38.0368 137.285 38.1064 137.078 38.1064C136.737 38.3849 136.53 38.5267 136.052 39.0142L135.64 39.3623C135.572 39.713 135.229 40.0612 134.888 40.3397C134.888 40.6879 134.819 40.8993 134.683 41.0386C134.203 41.5982 133.862 42.2274 133.657 42.8541L133.041 44.3215C132.768 44.712 132.625 45.0154 132.442 45.5103C132.339 45.5973 132.254 45.6844 132.22 45.7888C131.467 46.9776 130.098 49.492 129.346 50.6808C128.729 51.7279 128.249 52.7774 127.635 53.8244C127.087 54.6626 126.746 55.5007 126.198 56.3388C125.034 58.224 123.872 59.9724 122.571 61.7183C121.818 62.8375 120.997 63.8845 120.244 64.9315C119.971 65.2822 119.696 65.5608 119.355 65.8393L119.15 65.5608C119.219 65.2126 119.287 64.8619 119.287 64.653C119.287 63.7452 119.491 62.9071 119.56 61.9968L119.764 61.298C119.764 60.808 119.764 60.5295 119.969 60.1813C120.037 60.1117 120.037 60.042 120.037 59.8306L120.242 59.0621C120.446 58.5026 120.515 57.943 120.722 57.3859C120.926 56.8959 120.926 56.3388 121.133 55.7793C121.338 55.2893 121.474 54.8019 121.545 54.2423C121.613 53.8916 121.75 53.5434 121.818 53.3345C121.818 53.1256 121.818 52.9838 121.75 52.9142C121.954 52.5635 122.161 52.2153 122.23 51.795C122.23 51.7254 122.23 51.6558 122.298 51.5861C122.571 51.0962 122.571 50.5391 122.778 49.9795C122.982 49.4199 123.189 48.9325 123.189 48.3032C123.189 48.2336 123.258 48.164 123.258 48.0943C123.599 47.3258 123.738 46.627 124.01 45.8585C124.351 45.09 124.422 44.1822 124.763 43.3441C124.968 42.8541 125.036 42.3667 125.243 41.8767V41.4564C125.723 39.9891 126.132 38.5914 126.339 36.9847C126.408 36.7062 126.476 36.4948 126.476 36.1466C126.544 35.7959 126.544 35.3781 126.544 35.0274C126.612 34.259 126.544 33.6297 126.064 33.0702C125.791 32.8612 125.516 32.5106 125.311 32.0231C125.243 31.7446 125.107 31.6028 124.9 31.5332C124.559 31.3243 124.351 31.0432 124.147 30.695H124.079C124.01 30.695 124.01 30.6254 123.942 30.6254H123.394C122.778 30.9761 122.368 31.5332 121.889 32.0231C121.068 32.8612 120.315 33.6297 119.562 34.6768C119.562 34.7464 119.494 34.816 119.357 34.9553C119.016 35.4453 118.741 35.8631 118.261 36.353L116.892 38.2382C116.551 38.8674 116.139 39.427 115.798 39.9841C115.25 40.8222 114.773 41.6604 114.293 42.4985C114.02 42.9884 113.813 43.267 113.472 43.7569C113.472 43.548 113.404 43.548 113.404 43.4784C113.883 42.8492 113.952 42.1503 114.156 41.3818C114.225 40.8919 114.361 40.4741 114.704 40.193C114.704 39.8423 114.704 39.6334 114.773 39.5638C115.046 39.0739 115.184 38.4471 115.389 37.9572L116.005 36.2809C116.074 35.791 116.485 35.3731 116.417 34.8136C116.417 34.7439 116.485 34.6743 116.485 34.6047C116.622 34.4654 116.69 34.3261 116.69 34.1147C116.69 33.9033 116.758 33.8362 116.758 33.7665C117.099 32.998 117.443 32.4384 117.511 31.6003C117.579 31.3914 117.579 31.3218 117.784 31.1104C117.988 30.899 118.057 30.6901 118.057 30.4115C118.057 30.2026 118.193 30.2722 118.193 30.0633C118.398 29.7151 118.398 29.5037 118.605 29.2252C118.878 28.1782 119.289 27.34 119.494 26.2905C119.698 25.6613 119.698 25.0321 119.767 24.4053C119.767 23.9154 119.63 23.6368 119.426 23.3583C119.085 22.8683 118.809 22.5898 118.536 22.0998C118.468 21.9606 118.332 21.8213 118.125 21.6099L117.713 21.12C117.577 20.9807 117.44 20.911 117.301 20.911C117.097 20.9807 116.821 21.12 116.617 21.3313L115.179 23.1469C114.427 23.9154 113.947 24.6839 113.401 25.4524C113.06 25.9423 112.785 26.2209 112.512 26.7108L111.691 28.0389C111.623 28.2478 111.418 28.3871 111.35 28.5985C111.145 29.367 110.597 29.7176 110.324 30.4836C110.12 30.9736 109.844 31.461 109.503 31.951L108.955 33.0702C108.475 33.6994 108.271 34.259 107.998 34.8857L106.629 37.3304L105.944 38.7282H105.876V38.0989C106.217 37.4001 106.356 36.8405 106.424 36.353C106.629 35.7238 106.629 35.0946 106.836 34.6071C107.109 33.5601 107.248 32.5802 107.452 31.5332C107.657 30.7647 107.52 30.0658 107.725 29.2973V28.7377C107.657 28.4592 107.52 28.3174 107.725 28.0389V27.7603C107.52 27.2008 107.589 26.6412 107.245 26.0841L106.972 25.3852C106.699 24.8953 106.288 24.6167 106.083 24.1268C105.878 23.6368 105.603 23.2886 105.126 23.0076C104.921 22.7987 104.785 22.6594 104.646 22.5873C104.166 21.9581 103.549 21.6099 102.729 21.6795C102.524 21.7492 102.456 21.6795 102.249 21.6795C101.976 21.7492 101.837 21.8188 101.769 21.8188C100.948 22.0277 100.263 22.167 99.5104 22.6569C99.3058 22.8659 99.0305 23.0051 98.8259 23.0772C98.346 23.3558 97.9367 23.6368 97.5932 23.9154C97.3203 24.4053 96.9086 24.6142 96.6358 24.9624C96.5676 25.0321 96.4994 25.1017 96.4994 25.1017C96.2265 25.5916 95.883 25.8702 95.542 26.3601C94.9256 27.1286 94.4482 27.8275 94.1047 28.5263C94.1047 28.6656 94.1047 28.7353 94.0365 28.8049C93.4201 29.3645 93.1473 30.133 92.6674 30.9015C92.1875 31.5307 91.9146 32.2295 91.5711 32.8588L90.6137 35.0946C90.4091 35.3731 90.3409 35.5845 90.3409 35.7238C90.2727 36.0024 90.1362 36.1441 90.068 36.4227C89.8634 36.6316 89.8634 36.9126 89.7952 37.1215L89.5906 37.8204C89.3859 38.3103 89.3859 38.5192 89.3177 38.7978C89.3177 39.0067 89.2495 39.0763 89.2495 39.2877C89.2495 39.7777 89.0449 39.9866 88.9767 40.4765C88.9767 40.6854 88.9084 40.8968 88.8402 41.1754C88.6356 41.9439 88.772 42.5731 88.7038 43.3416C88.6356 43.9012 88.8402 44.4608 89.0449 44.9482C89.2495 45.5078 89.593 45.7864 90.0705 45.856C90.4115 45.7864 90.6868 45.5774 90.9597 45.2268C91.0279 44.9482 91.0279 44.6672 91.2325 44.4583C91.4371 44.1076 91.5053 43.8291 91.5736 43.3391C91.7782 42.9884 91.71 42.6403 91.9146 42.2921C92.1192 41.8021 92.2557 41.5236 92.3263 41.0336C92.5309 40.7551 92.738 40.474 92.738 40.1259C92.8062 39.6359 93.1497 39.3574 93.1497 38.8674C93.2179 38.6585 93.4226 38.4471 93.4908 38.2382L94.0389 37.119L94.587 35.9999L94.9987 35.2314L96.6407 32.436C96.8453 32.227 96.7771 32.0878 96.9817 31.8764C97.3228 31.2472 97.5981 30.7572 98.078 30.2001C98.5579 29.2923 99.1036 28.5935 99.7199 27.825C99.7881 27.6857 99.8563 27.5464 100.061 27.3351C100.541 27.0565 100.677 26.6362 101.155 26.3576L101.703 25.8677C102.524 25.3778 103.413 25.0296 104.234 24.7485H104.987C104.987 25.0967 104.987 25.3778 104.919 25.5867C104.85 25.7956 104.85 26.007 104.85 26.3552C104.85 26.9147 104.782 27.4022 104.646 27.8921C104.441 28.9392 104.373 29.8494 104.029 30.7572V30.9661C104.029 31.3143 103.961 31.5953 103.757 31.9435C103.688 32.2221 103.757 32.5727 103.552 32.8513C103.347 33.4805 103.14 34.1097 103.14 34.5972C102.936 34.9454 102.936 35.1568 102.729 35.4353C102.387 36.4824 102.044 37.6712 101.564 38.7182C101.223 39.5563 100.88 40.4641 100.675 41.5136L100.607 41.5833L99.9221 43.1203C99.7175 43.3988 99.7857 43.6798 99.5811 44.028C99.3764 44.518 99.3082 44.9358 99.0329 45.4257L98.3484 47.383C98.0755 47.873 98.0755 48.4997 97.732 48.9897C97.6638 49.0593 97.5956 49.1986 97.5956 49.2682L97.0475 51.2255L96.2947 53.4613L96.1583 53.7399C95.9537 54.3691 95.8173 54.9983 95.542 55.6251C95.2009 56.4632 94.8574 57.2317 94.6528 58.0698C94.6528 58.2091 94.5846 58.3484 94.5164 58.418C93.9683 59.6068 93.6272 60.7931 93.1473 61.9819C92.9426 62.2605 93.0791 62.5415 92.8744 62.82C92.3945 64.1481 91.9853 65.2648 91.71 66.5929C92.051 67.431 92.1899 67.6399 92.9426 68.1299L93.4908 68.4084C93.4908 68.4781 93.559 68.4781 93.6272 68.4781H93.6954C94.1753 68.1995 94.1071 67.7792 94.38 67.5006C94.4482 67.431 94.4482 67.3614 94.4482 67.2917L94.9963 66.3143C94.9963 66.1054 95.1327 65.9637 95.2009 65.6851L95.4056 65.2648C95.8855 64.357 96.2265 63.4493 96.7064 62.539C96.9111 61.9794 97.1181 61.4198 97.4592 60.7931C98.0073 59.7461 98.4848 58.5573 99.0329 57.5102C99.2376 57.162 99.2376 56.8114 99.4446 56.5328L99.6493 56.1125L100.266 55.0655C100.334 54.7869 100.402 54.5059 100.607 54.297C100.948 53.5285 101.291 53.1082 101.564 52.3397L102.317 50.8027C102.933 49.4746 103.618 48.4276 104.234 47.0995C104.575 46.4703 104.919 45.9107 105.191 45.1422C105.944 44.023 106.424 42.7671 107.177 41.6479L109.231 37.6662C109.435 37.1762 109.71 36.8281 109.915 36.3381C110.463 35.2911 111.08 34.3808 111.625 33.3338C111.693 32.8438 111.898 32.5653 112.105 32.3564C112.378 32.0082 112.585 31.5879 112.79 31.2397C112.79 31.3093 112.858 31.2397 112.994 31.1004V30.8915C112.994 30.8219 113.063 30.7522 113.199 30.613C113.267 30.8915 113.199 31.0333 112.994 31.1029C112.994 31.3118 112.926 31.6625 112.721 32.0107C112.449 32.5006 112.105 32.9184 111.9 33.6869C111.9 33.7334 111.878 33.7798 111.832 33.8262C111.628 34.1048 111.628 34.4554 111.421 34.8036C111.216 35.0822 111.216 35.5025 110.941 35.781L110.804 36.0596C110.736 36.5495 110.531 37.037 110.324 37.3876C109.983 37.9472 109.913 38.5764 109.708 39.1335L109.572 39.4121C109.299 39.9717 109.231 40.5313 109.023 41.0883C109.023 41.2276 108.955 41.3669 108.887 41.5783C108.407 42.6253 108.134 43.5356 107.793 44.5826C107.725 45.0726 107.725 45.3511 107.452 45.8411L107.384 45.9107V46.05C107.452 46.5399 107.248 46.8881 107.179 47.3781C107.179 47.587 107.248 47.587 107.248 47.7984C107.248 48.0098 107.179 48.0769 107.179 48.2883C107.179 48.4997 107.111 48.4972 107.179 48.7086C107.248 48.9175 107.248 49.0593 107.179 49.2682C107.111 49.3378 107.111 49.5468 107.111 49.8974C107.111 50.559 107.006 51.2578 107.045 51.9144C107.092 52.6953 107.464 53.23 107.839 53.9165C108.015 54.2348 108.195 54.5606 108.47 54.7944C108.746 55.0282 109.143 55.1451 109.469 54.9934C109.596 54.9337 109.706 54.8367 109.769 54.7123C109.82 54.6128 109.842 54.4984 109.869 54.389C110.098 53.429 110.734 52.6829 111.218 51.8572C111.835 50.8102 112.383 49.8999 112.997 48.9921C113.818 47.6641 114.707 46.3385 115.528 44.9408C115.732 44.6622 115.801 44.4508 116.008 44.1026C116.488 43.6127 116.624 43.0556 117.102 42.496C117.582 41.9364 117.923 41.3768 118.266 40.8197C118.607 40.3298 118.882 39.8423 119.362 39.3524C119.979 38.5839 120.456 37.8154 121.209 37.0469C121.757 36.4873 122.234 35.8581 122.851 35.2314L123.055 35.0921L123.124 35.0225C123.124 35.0689 123.101 35.0921 123.055 35.0921C123.055 35.301 123.055 35.5124 122.987 35.5821C122.714 36.3505 122.576 36.9101 122.234 37.6786C122.03 38.2382 121.893 38.8674 121.686 39.4942C121.414 40.1234 121.206 40.8222 120.865 41.4515C120.661 42.2199 120.524 42.7795 120.249 43.548C120.044 44.038 120.044 44.5951 119.701 45.085C119.633 45.1546 119.633 45.2243 119.633 45.3636L118.675 48.159C118.471 48.6489 118.402 48.8578 118.471 49.3478C118.266 49.4174 118.198 49.5567 118.198 49.696C118.198 49.9049 118.198 50.0442 118.13 50.1163C117.789 50.6062 117.789 51.1633 117.582 51.6533C117.377 52.0015 117.513 52.3521 117.309 52.7003C117.036 53.3295 116.968 53.9587 116.761 54.5855L116.008 57.6595C115.803 58.5672 115.735 59.756 115.735 60.5942C115.667 61.0841 115.735 61.6412 115.871 62.3401L116.008 63.877C116.212 64.7152 116.488 65.4837 116.829 66.1129C117.17 66.7421 117.582 67.3017 118.13 67.7891C118.746 68.3487 119.362 68.6969 119.979 68.9083C120.731 68.6994 120.663 68.8387 120.868 68.6298C121.552 68.0702 122.1 67.5106 122.578 66.8839C123.058 66.1154 123.467 65.6254 123.811 64.8569C124.291 64.0188 124.836 63.2503 125.384 62.4122C126.478 60.527 127.506 58.8483 128.532 56.8934C129.08 55.8464 129.626 54.7969 130.106 53.7498L131.399 50.9121C131.333 52.1731 131.28 53.3171 131.477 54.588L132.093 56.7542C132.573 57.943 133.258 58.99 134.215 59.9674C134.968 60.7359 135.653 61.0841 136.474 61.4348C137.09 61.6437 137.567 61.5044 137.979 61.1562C138.595 60.5966 139.144 59.8978 139.621 59.0597C140.169 58.0126 140.647 57.0327 140.99 55.9857L141.948 53.2599C142.152 52.7699 142.289 52.4218 142.496 52.0711C142.541 52.0711 142.564 52.0943 142.564 52.1407C142.837 52.3496 142.976 52.4193 142.976 52.4193C143.728 53.1878 144.345 53.6777 145.37 54.1652C145.918 54.4437 146.535 54.4437 147.149 54.2348C147.149 54.3044 147.217 54.1652 147.353 53.9563C147.833 53.7473 147.97 53.4663 148.242 52.9789C148.447 52.7003 148.654 52.28 148.927 52.0015C148.956 51.9467 148.985 51.8895 149.015 51.8323C148.978 52.1034 148.966 52.367 149.063 52.6307C148.859 53.1903 148.927 53.8195 148.859 54.4462C148.654 56.3314 148.791 57.5898 149.132 59.1964C149.543 60.9423 150.501 62.4793 151.938 63.8074C152.418 64.1556 152.895 64.4366 153.375 64.7152C153.58 64.9241 153.923 64.9241 154.265 64.8544C154.744 64.6455 155.017 64.5038 155.154 64.2949C155.906 63.7353 156.455 63.1061 156.932 62.2679C157.137 61.778 157.412 61.4994 157.685 61.0095C158.438 59.8207 159.054 58.6344 159.531 57.5848C160.421 55.9086 161.173 54.1602 161.994 52.4143L162.611 51.0862C162.611 51.0862 162.618 51.0713 162.62 51.0638C162.608 52.2626 162.645 53.4713 162.815 54.6501C162.952 55.6972 163.295 56.8164 163.773 57.933C164.594 59.3307 165.483 60.5171 166.784 61.5666C168.085 62.4744 170.068 62.3351 171.644 62.4047C171.985 62.3351 172.328 62.4047 172.601 62.1958C173.422 61.9869 174.038 61.4273 174.791 60.8677C175.203 60.5195 175.612 60.0296 176.092 59.4004C176.365 59.1218 176.572 58.8408 176.777 58.5622C177.325 57.7938 177.802 57.0253 178.282 56.2568C178.699 55.5828 179.062 54.9088 179.4 54.2174C179.425 54.7223 179.476 55.2271 179.583 55.7668C179.788 57.0949 180.336 58.2116 181.089 59.2611C182.114 60.5195 183.415 61.4273 184.852 61.9869C185.4 62.1958 185.946 62.1958 186.494 61.9869C187.042 61.778 187.588 61.4273 188.136 60.8677L189.574 59.1218C190.053 58.6319 190.463 58.0027 190.874 57.3759C191.491 56.6074 191.968 55.6997 192.516 54.8615L194.09 52.0114V57.167C194.09 57.4456 194.158 57.657 194.227 57.9355C194.295 58.5647 194.568 59.1243 195.048 59.6118L196.28 61.0791C196.76 61.7083 197.238 62.0565 197.786 62.3376C197.99 62.4768 198.197 62.4768 198.47 62.3376L199.087 61.5691C199.566 60.522 200.044 59.8232 200.524 58.7736C201.004 57.6545 201.549 56.5378 202.029 55.349L203.671 50.6684C204.012 49.8999 204.219 49.0618 204.697 48.2236C204.697 48.5718 204.765 48.7832 204.697 48.9921C204.492 49.4821 204.561 49.8303 204.561 50.1809V53.8841C204.561 54.7223 204.629 55.4908 204.765 56.2593C205.038 57.8659 205.586 59.194 206.407 60.3828C206.748 60.8727 207.092 61.2209 207.501 61.4298C207.706 61.4994 207.913 61.6387 208.185 61.8501C208.596 61.8501 208.893 61.7805 209.075 61.6412C209.555 61.3626 209.964 61.012 210.376 60.522C210.992 59.7535 211.469 58.9154 211.949 58.0773L212.77 56.2617C213.209 55.3042 213.53 54.5208 213.845 53.5932C213.832 53.8742 213.827 54.1602 213.796 54.4462C213.591 56.3314 213.728 57.5898 214.069 59.1964C214.48 60.9423 215.438 62.4793 216.875 63.8074C217.355 64.1556 217.832 64.4366 218.312 64.7152C218.517 64.9241 218.861 64.9241 219.202 64.8544C219.681 64.6455 219.954 64.5038 220.091 64.2949C220.844 63.7353 221.392 63.1061 221.869 62.2679C222.074 61.778 222.349 61.4994 222.622 61.0095C223.375 59.8207 223.991 58.6344 224.471 57.5848C225.36 55.9086 226.113 54.1602 226.934 52.4143L227.55 51.0862C227.55 51.0862 227.557 51.0713 227.56 51.0638C227.548 52.2626 227.584 53.4713 227.755 54.6501C227.891 55.6972 228.235 56.8164 228.712 57.933C229.533 59.3307 230.422 60.5171 231.723 61.5666C233.024 62.4744 235.007 62.3351 236.583 62.4047C236.924 62.3351 237.268 62.4047 237.541 62.1958C238.362 61.9869 238.978 61.4273 239.731 60.8677C240.142 60.5195 240.552 60.0296 241.032 59.4004C241.304 59.1218 241.511 58.8408 241.716 58.5622C242.264 57.7938 242.742 57.0253 243.222 56.2568C244.043 54.9287 244.659 53.6031 245.275 52.1333C245.823 50.8052 246.096 49.4075 246.576 48.0819C246.781 47.5919 246.713 47.383 246.917 46.8931C246.985 46.5449 246.985 46.1942 246.917 45.9853L246.949 46.0301ZM232.03 46.239C232.235 45.6794 232.442 45.0502 232.783 44.4931C232.851 44.4235 232.988 44.2842 233.056 44.0728C233.124 43.9335 233.26 43.7942 233.329 43.5828C233.809 43.0929 234.081 42.6751 234.561 42.1851C235.041 41.5559 235.794 41.1381 236.82 40.9963C236.888 41.2052 236.956 41.1356 237.024 41.3445C237.504 42.8119 237.777 44.2096 237.297 45.8162C237.161 46.5151 236.817 47.1443 236.34 47.7735C236.067 48.052 235.792 48.2634 235.587 48.542C235.107 48.8927 234.629 49.0319 234.218 49.0319C233.601 49.1016 232.917 49.1016 232.301 48.8927C232.028 48.823 231.684 48.6838 231.616 48.4027C231.616 47.6342 231.752 46.9354 232.028 46.2365L232.03 46.239ZM167.083 46.239C167.288 45.6794 167.495 45.0502 167.836 44.4931C167.904 44.4235 168.041 44.2842 168.109 44.0728C168.177 43.9335 168.314 43.7942 168.382 43.5828C168.862 43.0929 169.135 42.6751 169.614 42.1851C170.094 41.5559 170.847 41.1381 171.873 40.9963C171.941 41.2052 172.009 41.1356 172.077 41.3445C172.557 42.8119 172.83 44.2096 172.35 45.8162C172.214 46.5151 171.87 47.1443 171.393 47.7735C171.12 48.052 170.845 48.2634 170.64 48.542C170.16 48.8927 169.683 49.0319 169.271 49.0319C168.655 49.1016 167.97 49.1016 167.354 48.8927C167.081 48.823 166.737 48.6838 166.669 48.4027C166.669 47.6342 166.806 46.9354 167.081 46.2365L167.083 46.239ZM113.701 29.8892C113.769 30.0981 113.701 30.1678 113.496 30.0981L113.701 29.8892ZM141.831 44.702C140.052 45.0502 139.229 49.5219 140.666 50.7803C140.325 52.4566 140.325 52.3173 139.57 53.9936C139.09 54.8317 138.817 55.7395 138.337 56.508L138.064 57.1372C137.723 57.4854 137.584 57.9057 137.38 58.1842C136.9 58.6742 136.491 59.1616 136.011 59.373C135.67 59.5819 135.463 59.6516 135.326 59.6516L134.985 58.7438C134.78 58.3931 134.644 57.836 134.644 57.3461C134.576 56.5776 134.644 56.018 134.576 55.3888C134.508 55.3192 134.576 55.1102 134.644 54.8988C134.439 54.4089 134.508 53.7797 134.576 53.2226V52.3148C134.78 51.6856 134.78 51.1957 134.849 50.6386C134.894 50.6386 134.917 50.6153 134.917 50.5689C134.917 49.8004 135.258 49.0319 135.465 48.2634C135.601 47.4253 135.806 46.7265 136.15 46.1669C136.491 45.5377 136.766 44.9084 136.971 44.1399C137.175 43.7918 137.312 43.3714 137.587 43.0208C137.792 42.6726 137.792 42.3219 138.135 42.0434L138.751 41.066C138.956 40.8571 139.024 40.6457 139.231 40.3671C139.572 40.1582 139.779 39.9468 140.396 39.7379C140.6 39.9468 140.807 39.8772 141.08 40.0861C141.421 40.576 141.492 40.9242 141.421 41.2052C141.626 41.9737 141.626 42.5333 141.833 43.0904C141.901 43.65 141.833 44.2096 141.833 44.697L141.831 44.702Z" fill="#231300"/>
<path d="M105.693 39.111V39.0439L105.76 39.111H105.693Z" fill="#231300"/>
<path d="M126.97 72.0295H125.833L123.516 75.2801H122.524V72.0295H121.599V80.1049H122.524V76.1779H123.567L126.122 80.1049H127.238L124.351 75.6755L126.97 72.0295Z" fill="#231300"/>
<path d="M132.888 71.9399C130.719 71.9399 129.082 73.7057 129.082 76.056C129.082 78.4062 130.683 80.177 132.888 80.177C135.092 80.177 136.693 78.4485 136.693 76.056C136.693 73.6635 135.056 71.9399 132.888 71.9399ZM132.888 79.2866C131.246 79.2866 130.052 77.9486 130.052 76.056C130.052 74.1633 131.27 72.8402 132.888 72.8402C134.505 72.8402 135.723 74.2007 135.723 76.056C135.723 77.9113 134.53 79.2866 132.888 79.2866Z" fill="#231300"/>
<path d="M143.397 72.9398V71.838H142.498V72.9398C141.109 72.9398 138.956 73.5789 138.956 75.9118C138.956 77.5607 140.257 78.931 142.498 78.931V80.1969H143.397V78.931C145.638 78.931 146.939 77.5607 146.939 75.9118C146.939 73.5765 144.786 72.9398 143.397 72.9398ZM142.498 78.0382C141.109 78.0382 139.901 77.2896 139.901 75.9143C139.901 74.5389 140.888 73.8475 142.498 73.8475V78.0382ZM143.397 78.0382V73.8475C145.012 73.8475 145.999 74.5862 145.999 75.9143C145.999 77.2423 144.786 78.0382 143.397 78.0382Z" fill="#231300"/>
<path d="M150.457 76.1829H153.215V75.2925H150.457V72.9298H153.539V72.0295H149.534V80.1049H153.653V79.2146H150.457V76.1829Z" fill="#231300"/>
<path d="M164.282 79.2867C162.635 79.2867 161.441 77.9536 161.441 76.056C161.441 74.1584 162.664 72.8403 164.277 72.8403C164.964 72.8403 165.466 73.089 165.97 73.5615L166.754 73.0243C166.072 72.323 165.268 71.9375 164.277 71.9375C162.109 71.9375 160.477 73.7083 160.477 76.0535C160.477 78.3988 162.077 80.1746 164.282 80.1746C165.38 80.1746 166.389 79.7468 167.064 78.9783L166.345 78.3615C165.778 78.9882 165.081 79.2842 164.279 79.2842L164.282 79.2867Z" fill="#231300"/>
<path d="M177.532 79.2867C175.885 79.2867 174.691 77.9536 174.691 76.056C174.691 74.1584 175.914 72.8403 177.527 72.8403C178.214 72.8403 178.716 73.089 179.22 73.5615L180.004 73.0243C179.322 72.323 178.518 71.9375 177.527 71.9375C175.359 71.9375 173.727 73.7083 173.727 76.0535C173.727 78.3988 175.327 80.1746 177.532 80.1746C178.63 80.1746 179.639 79.7468 180.314 78.9783L179.595 78.3615C179.028 78.9882 178.331 79.2842 177.529 79.2842L177.532 79.2867Z" fill="#231300"/>
<path d="M186.217 71.9399C184.048 71.9399 182.411 73.7057 182.411 76.056C182.411 78.4062 184.012 80.177 186.217 80.177C188.421 80.177 190.022 78.4485 190.022 76.056C190.022 73.6635 188.385 71.9399 186.217 71.9399ZM186.217 79.2866C184.575 79.2866 183.381 77.9486 183.381 76.056C183.381 74.1633 184.599 72.8402 186.217 72.8402C187.834 72.8402 189.052 74.2007 189.052 76.056C189.052 77.9113 187.859 79.2866 186.217 79.2866Z" fill="#231300"/>
<path d="M194.811 75.2876H193.537V72.9249H196.743V72.0295H192.611V80.1049H195.06C196.641 80.1049 197.462 79.2395 197.462 77.6527C197.462 76.2351 196.424 75.2851 194.814 75.2851L194.811 75.2876ZM194.641 79.2146H193.535V76.1779H194.85C195.924 76.1779 196.507 76.6902 196.507 77.6527C196.507 78.6152 196.212 79.2121 194.638 79.2121L194.641 79.2146Z" fill="#231300"/>
<path d="M203.513 71.9399C201.345 71.9399 199.708 73.7057 199.708 76.056C199.708 78.4062 201.308 80.177 203.513 80.177C205.718 80.177 207.318 78.4485 207.318 76.056C207.318 73.6635 205.681 71.9399 203.513 71.9399ZM203.513 79.2866C201.871 79.2866 200.677 77.9486 200.677 76.056C200.677 74.1633 201.895 72.8402 203.513 72.8402C205.131 72.8402 206.349 74.2007 206.349 76.056C206.349 77.9113 205.155 79.2866 203.513 79.2866Z" fill="#231300"/>
<path d="M212.875 71.1491C213.613 71.1491 214.49 70.7263 214.785 69.7937L213.979 69.5823C213.793 70.0722 213.401 70.3358 212.873 70.3358C212.344 70.3358 212.005 70.0822 211.784 69.5823L210.963 69.7937C211.262 70.7263 212.161 71.1491 212.873 71.1491H212.875Z" fill="#231300"/>
<path d="M210.826 77.8741V72.0295H209.9V80.3835L214.926 74.2704V80.1049H215.849V71.7435L210.826 77.8741Z" fill="#231300"/>
<path d="M75.8755 46.0284L78.4653 26.2581L61.3259 17.8677C61.3237 17.8447 61.3192 17.8216 61.3146 17.8009L57.5734 3.3667C57.5056 3.10393 57.2415 2.94718 56.9863 3.01633C56.7289 3.08549 56.5754 3.35518 56.6432 3.61565L60.3844 18.0498C60.3889 18.0706 60.398 18.089 60.4047 18.1074L47.763 31.6519L31.292 31.177L24.3808 18.1167C24.2543 17.8769 23.9631 17.7894 23.7282 17.9184C23.4934 18.0475 23.4076 18.3449 23.5341 18.5846L30.1812 31.1448L28.8852 31.1079L28.1468 32.3319L21.4726 19.721C21.3462 19.4813 21.0549 19.3937 20.8201 19.5227C20.5853 19.6518 20.4995 19.9492 20.626 20.1889L27.5643 33.3L19.0929 47.3469L4.5162 46.2682C4.25204 46.2474 4.02174 46.4526 4.00142 46.7222C3.98109 46.9919 4.18204 47.2271 4.44621 47.2478L18.9122 48.3196L26.7312 63.0927L19.6302 76.1277C19.5015 76.3651 19.5851 76.6647 19.8176 76.7961C19.9667 76.8814 20.1405 76.8768 20.2805 76.7984C20.3573 76.7546 20.425 76.6901 20.4724 76.6048L27.2753 64.1184L27.9414 65.3793L29.2464 65.4161L22.518 77.7666C22.3893 78.004 22.4729 78.3036 22.7054 78.435C22.8544 78.5203 23.0283 78.5157 23.1683 78.4373C23.2451 78.3935 23.3128 78.329 23.3602 78.2437L30.3324 65.4461L46.7651 65.9186L53.5522 78.7393C53.6786 78.979 53.9699 79.0666 54.2047 78.9375C54.4395 78.8084 54.5253 78.5111 54.3988 78.2714L47.6118 65.4507L57.2212 49.516L75.88 46.0261L75.8755 46.0284ZM75.0153 45.1917L57.1873 48.5271L48.5601 32.2258L61.064 18.8289L77.4199 26.8343L75.0153 45.1894V45.1917ZM19.8357 47.9992L29.4158 32.1106L47.6682 32.6361L56.3632 49.0642L46.7899 64.939L28.5216 64.4134L19.8334 47.9992H19.8357Z" fill="#231300"/>
<path d="M50.9038 31.5159C50.669 31.645 50.5832 31.9424 50.7097 32.1821L57.6616 45.3185C57.788 45.5582 58.0793 45.6458 58.3141 45.5168C58.5489 45.3877 58.6347 45.0903 58.5083 44.8506L51.5563 31.7142C51.4299 31.4744 51.1386 31.3868 50.9038 31.5159Z" fill="#231300"/>
<path d="M73.6606 38.6154C73.7645 38.6292 73.8661 38.6084 73.9519 38.56C74.0828 38.4886 74.1799 38.3549 74.2002 38.1935L75.5888 27.5973C75.6249 27.3276 75.4398 27.0809 75.1756 27.0463C74.9137 27.0095 74.6699 27.1985 74.636 27.4682L73.2474 38.0644C73.2113 38.3341 73.3964 38.5808 73.6606 38.6154Z" fill="#231300"/>
</g>
<defs>
<clipPath id="clip0_26_133">
<rect width="247" height="82" fill="white"/>
</clipPath>
</defs>
</svg>
