<svg width="106" height="107" viewBox="0 0 106 107" fill="none" xmlns="http://www.w3.org/2000/svg">
<ellipse cx="53" cy="83.5" rx="53" ry="23.5" fill="#D37E56" fill-opacity="0.23"/>
<path d="M81.2842 11.6583C73.7294 4.14035 63.6844 0 53 0C42.3156 0 32.2706 4.14035 24.7158 11.6583C17.1607 19.1765 13 29.1722 13 39.8043C13 58.5615 26.1777 74.7551 44.4844 78.7014L53 90L61.5158 78.7012C79.8223 74.7549 93 58.5615 93 39.8043C93 29.1722 88.8393 19.1765 81.2842 11.6583ZM53 10.3914C69.2005 10.3914 82.3805 23.5071 82.3805 39.6282C82.3805 55.7493 69.2005 68.865 53 68.865C36.7995 68.865 23.6195 55.7493 23.6195 39.6282C23.6195 23.5071 36.7995 10.3914 53 10.3914Z" fill="#D37E56"/>
<g clip-path="url(#clip0_2252_27)">
<path d="M53 69C69.5685 69 83 55.5685 83 39C83 22.4315 69.5685 9 53 9C36.4315 9 23 22.4315 23 39C23 55.5685 36.4315 69 53 69Z" fill="black"/>
<path d="M56.7765 31.5529C57.0235 31.4294 57.3238 31.5295 57.4473 31.7765L60.9473 38.7765C61.0708 39.0235 60.9707 39.3238 60.7237 39.4473C60.4767 39.5708 60.1764 39.4707 60.0529 39.2237L56.5529 32.2237C56.4294 31.9767 56.5295 31.6764 56.7765 31.5529Z" fill="white"/>
<path d="M69.3604 30.074C69.4012 29.8009 69.2129 29.5464 68.9398 29.5056C68.6667 29.4647 68.4122 29.653 68.3714 29.9261L67.8342 33.518C67.7933 33.7911 67.9816 34.0456 68.2547 34.0865C68.5278 34.1273 68.7823 33.939 68.8232 33.6659L69.3604 30.074Z" fill="white"/>
<path fill-rule="evenodd" clip-rule="evenodd" d="M70.051 40.195L69.6216 39.7655L59.9146 41.5423L54.9345 49.6343L58.4949 56.2222C58.6738 56.5509 58.5354 56.9476 58.2274 57.1156C57.8986 57.2949 57.5016 57.1565 57.3335 56.8483L57.3327 56.847L53.7719 50.2582L45.3576 50.0223L41.7061 56.5851C41.6369 56.7173 41.531 56.7992 41.4499 56.8455L41.4411 56.8504C41.2629 56.9463 41.0205 56.9676 40.8073 56.8474C40.4882 56.671 40.3777 56.2697 40.5491 55.9554L40.5507 55.9526L43.8688 49.9831L43.5867 49.9741L43.4621 49.7444L40.1428 55.7182C40.0736 55.8505 39.9676 55.9324 39.8865 55.9788L39.8777 55.9837C39.6994 56.0797 39.457 56.1009 39.2438 55.9807C38.9247 55.8042 38.8143 55.403 38.9857 55.0887L38.9873 55.0858L42.7214 48.3722L39.1171 41.6952L39.0558 41.7948V41.5816L38.7039 40.9296L31.0969 40.3788C30.7382 40.3501 30.4629 40.0356 30.4921 39.6706C30.5208 39.3125 30.8343 39.0375 31.1985 39.0657L31.2003 39.0658L38.8403 39.6202L43.1746 32.5802L39.5347 25.8392C39.356 25.5105 39.4945 25.1141 39.8024 24.9461C40.1312 24.7668 40.5282 24.9052 40.6963 25.2134L40.6971 25.2148L43.9757 31.283L44.1296 31.0323L44.3727 31.0382L41.1043 24.9903L41.1037 24.9893C40.9252 24.6607 41.0636 24.2643 41.3715 24.0964C41.7003 23.9171 42.0973 24.0555 42.2654 24.3637L42.2661 24.365L45.895 31.0784L54.391 31.3162L60.9481 24.4331L58.9733 16.9653C58.8901 16.6325 59.0785 16.2535 59.4531 16.1625C59.7844 16.0807 60.1608 16.2677 60.2532 16.6393L62.2368 24.1403L71.5958 28.631L70.051 40.195ZM70.1593 29.4125L68.9335 38.5581L59.8696 40.2196L55.4784 32.098L61.8409 25.4211L70.1593 29.4125ZM44.394 48.6785L39.9191 40.3927L44.8585 32.3709L54.2647 32.6355L58.7467 40.93L53.8114 48.9431L44.394 48.6785Z" fill="white"/>
</g>
<defs>
<clipPath id="clip0_2252_27">
<rect width="60" height="60" fill="white" transform="translate(23 9)"/>
</clipPath>
</defs>
</svg>
