<svg width="24" height="27" viewBox="0 0 24 27" fill="none" xmlns="http://www.w3.org/2000/svg">
<path d="M20.4853 3.49748C18.2188 1.24211 15.2053 0 12 0C8.79467 0 5.78119 1.24211 3.51473 3.49748C1.24821 5.75295 0 8.75165 0 11.9413C0 17.5684 3.95331 22.4265 9.44533 23.6104L12 27L14.5547 23.6104C20.0467 22.4265 24 17.5684 24 11.9413C24 8.75165 22.7518 5.75295 20.4853 3.49748ZM12 3.11742C16.8602 3.11742 20.8142 7.05213 20.8142 11.8885C20.8142 16.7248 16.8602 20.6595 12 20.6595C7.13984 20.6595 3.18584 16.7248 3.18584 11.8885C3.18584 7.05213 7.13984 3.11742 12 3.11742Z" fill="white"/>
</svg>
