<svg xmlns="http://www.w3.org/2000/svg" xmlns:xlink="http://www.w3.org/1999/xlink">
  <symbol id="search-ic" viewBox="0 0 52 52">
    <rect width="52" height="52" class="search-icon__background"/>
    <path d="M22.4375 37.875C25.7225 37.8801 28.9227 36.8331 31.5694 34.8872H31.567C31.6383 34.9822 31.7143 35.0725 31.7998 35.1604L40.9435 44.3041C41.3888 44.7498 41.993 45.0003 42.623 45.0005C43.253 45.0007 43.8573 44.7506 44.3029 44.3053C44.7486 43.86 44.9991 43.2559 44.9993 42.6258C44.9995 41.9958 44.7495 41.3915 44.3041 40.9459L35.1604 31.8021C35.0755 31.7162 34.9842 31.6368 34.8872 31.5646C36.8326 28.9195 37.8796 25.7209 37.875 22.4375C37.8737 18.3436 36.2469 14.4177 33.3521 11.5229C30.4573 8.62811 26.5314 7.00126 22.4375 7C18.3432 7 14.4166 8.62645 11.5215 11.5215C8.62645 14.4166 7 18.3432 7 22.4375C7 26.5318 8.62645 30.4584 11.5215 33.3535C14.4166 36.2486 18.3432 37.875 22.4375 37.875ZM22.4375 17.6447C26.3895 13.6714 36.2719 20.623 22.4375 29.5625C8.60313 20.623 18.4855 13.6737 22.4375 17.6447Z" fill="white"/>
  </symbol>

  <symbol id="prev-arrow-ic" viewBox="0 0 45 53">
    <path d="M44.6875 52.7712C44.9845 52.5063 45.0746 52.086 44.9215 51.7297L34.2746 26.5034L44.9215 1.27714C45.2759 0.524195 44.356 -0.337783 43.6435 0.135111L0.44361 25.7177C-0.14336 26.0372 -0.152378 26.9697 0.443655 27.2891L43.6435 52.8717C43.9765 53.0728 44.3996 53.0362 44.6875 52.7712Z" />
  </symbol>

  <symbol id="next-arrow-ic" viewBox="0 0 45 53">
    <path d="M0.312492 0.228761C0.0154743 0.493705 -0.0745527 0.914009 0.078483 1.27035L10.7254 26.4966L0.0784763 51.7229C-0.275898 52.4758 0.644008 53.3378 1.3565 52.8649L44.5564 27.2824C45.1434 26.9628 45.1524 26.0303 44.5563 25.7109L1.35647 0.128275C1.02347 -0.0727591 0.600437 -0.0361837 0.312492 0.228761Z" />
  </symbol>

  <symbol id="plus-ic" viewBox="0 0 20 20">
    <path d="M20 11.25C20 11.4792 19.8125 11.6667 19.5833 11.6667H11.6667V19.5833C11.6667 19.8125 11.4792 20 11.25 20H8.75C8.52083 20 8.33333 19.8125 8.33333 19.5833V11.6667H0.416667C0.1875 11.6667 0 11.4792 0 11.25V8.75C0 8.52083 0.1875 8.33333 0.416667 8.33333H8.33333V0.416666C8.33333 0.1875 8.52083 0 8.75 0H11.25C11.4792 0 11.6667 0.1875 11.6667 0.416666V8.33333H19.5833C19.8125 8.33333 20 8.52083 20 8.75V11.25Z" />
  </symbol>

  <symbol id="minus-ic" viewBox="0 0 20 20">
    <path d="M20 10.9095C20 11.1381 19.8125 11.3251 19.5833 11.3251H0.416666C0.187499 11.3251 0 11.1381 0 10.9095V8.41564C0 8.18704 0.187499 8 0.416666 8H19.5833C19.8125 8 20 8.18704 20 8.41564V10.9095Z" />
  </symbol>
</svg>
