<svg xmlns="http://www.w3.org/2000/svg" xmlns:xlink="http://www.w3.org/1999/xlink">
  <symbol id="search-ic" viewBox="0 0 52 52">
    <rect width="52" height="52" class="search-icon__background"/>
    <path d="M22.4375 37.875C25.7225 37.8801 28.9227 36.8331 31.5694 34.8872H31.567C31.6383 34.9822 31.7143 35.0725 31.7998 35.1604L40.9435 44.3041C41.3888 44.7498 41.993 45.0003 42.623 45.0005C43.253 45.0007 43.8573 44.7506 44.3029 44.3053C44.7486 43.86 44.9991 43.2559 44.9993 42.6258C44.9995 41.9958 44.7495 41.3915 44.3041 40.9459L35.1604 31.8021C35.0755 31.7162 34.9842 31.6368 34.8872 31.5646C36.8326 28.9195 37.8796 25.7209 37.875 22.4375C37.8737 18.3436 36.2469 14.4177 33.3521 11.5229C30.4573 8.62811 26.5314 7.00126 22.4375 7C18.3432 7 14.4166 8.62645 11.5215 11.5215C8.62645 14.4166 7 18.3432 7 22.4375C7 26.5318 8.62645 30.4584 11.5215 33.3535C14.4166 36.2486 18.3432 37.875 22.4375 37.875ZM22.4375 17.6447C26.3895 13.6714 36.2719 20.623 22.4375 29.5625C8.60313 20.623 18.4855 13.6737 22.4375 17.6447Z" fill="white"/>
  </symbol>
</svg>
