<svg width="26" height="26" viewBox="0 0 26 26" fill="none" xmlns="http://www.w3.org/2000/svg">
<path d="M25.741 7.8002C25.741 7.8002 25.4871 6.00762 24.7051 5.22051C23.7148 4.18457 22.6078 4.17949 22.1 4.11855C18.4641 3.85449 13.0051 3.85449 13.0051 3.85449H12.9949C12.9949 3.85449 7.53594 3.85449 3.9 4.11855C3.39219 4.17949 2.28516 4.18457 1.29492 5.22051C0.512891 6.00762 0.264062 7.8002 0.264062 7.8002C0.264062 7.8002 0 9.90762 0 12.01V13.9803C0 16.0826 0.258984 18.19 0.258984 18.19C0.258984 18.19 0.512891 19.9826 1.28984 20.7697C2.28008 21.8057 3.58008 21.7701 4.15898 21.8818C6.24102 22.0799 13 22.1408 13 22.1408C13 22.1408 18.4641 22.1307 22.1 21.8717C22.6078 21.8107 23.7148 21.8057 24.7051 20.7697C25.4871 19.9826 25.741 18.19 25.741 18.19C25.741 18.19 26 16.0877 26 13.9803V12.01C26 9.90762 25.741 7.8002 25.741 7.8002ZM10.3137 16.3721V9.06465L17.3367 12.7311L10.3137 16.3721Z" fill="white"/>
</svg>
